<?xml version="1.0" encoding="utf-8"?>
<!-- Generator: Adobe Illustrator 27.2.0, SVG Export Plug-In . SVG Version: 6.00 Build 0)  -->
<svg version="1.1" xmlns="http://www.w3.org/2000/svg" xmlns:xlink="http://www.w3.org/1999/xlink" x="0px" y="0px"
	 viewBox="0 0 500 500" style="enable-background:new 0 0 500 500;" xml:space="preserve">
<style type="text/css">
	.st0{fill:#37474F;}
	.st1{fill:#263238;}
	.st2{opacity:0.2;fill:#BA68C8;}
	.st3{opacity:0.15;fill:#BA68C8;}
	.st4{fill:#BA68C8;}
	.st5{opacity:0.3;fill:#FFFFFF;}
	.st6{opacity:0.15;}
	.st7{fill:#455A64;}
	.st8{opacity:0.9;fill:#FFFFFF;}
	.st9{opacity:0.1;fill:#BA68C8;}
	.st10{fill:#E0E0E0;}
	.st11{opacity:0.3;}
	.st12{opacity:0.5;fill:#FFFFFF;}
	.st13{opacity:0.25;}
	.st14{opacity:0.45;fill:#FFFFFF;}
	.st15{opacity:0.3;fill:#BA68C8;}
	.st16{opacity:0.6;fill:#FFFFFF;}
	.st17{fill:#FFBDA7;}
	.st18{fill:#FFFFFF;}
	.st19{opacity:0.1;}
	.st20{fill:#F0997A;}
</style>
<g id="Background_00000016762405228211513170000005368817980018294924_">
	<g id="Background">
		<path class="st0" d="M488.89,246.17c-5.18-53.7-32.15-107.28-55.42-136.86c-98.61-125.4-296.53-125.16-390.8,32.35
			C16.09,186.08-0.6,284.85,19.15,357.9C44.42,451.4,144,487.81,254.74,486.95c103.47-0.8,184.83-45.79,215.29-107.94
			C489.09,340.13,494.07,299.87,488.89,246.17z"/>
		<path class="st1" d="M42.68,141.66C16.09,186.08-0.6,284.85,19.15,357.9c4.43,16.4,11.16,31.04,19.83,44.04c0,0,0,0,0,0
			l109.95-63.47l93.7-54.09v0l220.12-127.07c0,0,0,0,0,0c-9.16-19.03-19.54-35.62-29.28-48C334.86-16.09,136.95-15.85,42.68,141.66z
			"/>
	</g>
</g>
<g id="Portal_00000026855204474694578830000004253821980070939290_">
	<g id="Portal_00000155840245521692868560000003185948591133823111_">
		<path class="st2" d="M305.54,326.27l0-12.34l-17.82-10.28l0-12.34l-17.82-10.28l0-12.35l-17.82-10.28l-76.97,42l19.96,11.49
			l0,12.34l17.81,10.29l0,12.34l17.81,10.29v12.34l78.07,112.82c77.32-13.07,136.33-52.42,161.26-103.28
			c2.88-5.88,5.44-11.79,7.69-17.77c0,0,0,0,0,0L305.54,326.27z"/>
		<g>
			<path class="st3" d="M195.78,85.7c-52.1,29.98-94.34,110.39-94.34,179.62c0,41.14,14.92,69.06,37.96,78.66l9.54-5.5l93.7-54.09v0
				l9.77-5.64c22.91-36.05,37.72-80.97,37.72-121.97C290.12,87.55,247.89,55.73,195.78,85.7z"/>
			<path class="st3" d="M195.78,105.72c-43.78,25.2-79.28,92.77-79.28,150.93s35.5,84.91,79.28,59.72
				c43.79-25.18,79.28-92.76,79.28-150.93S239.57,80.53,195.78,105.72z"/>
			<path class="st3" d="M195.78,119.83c-37.78,21.82-68.41,80.34-68.41,130.72c0,50.38,30.63,73.54,68.41,51.72
				c37.79-21.81,68.41-80.34,68.41-130.72C264.19,121.17,233.57,98.01,195.78,119.83z"/>
		</g>
		<g>
			<g>
				<path class="st4" d="M155.44,252.93c0-43.65,26.54-94.34,59.27-113.25c14.42-8.33,27.63-9.09,37.91-3.61
					c-3.23-1.87-11.17-6.46-13.31-7.69c-10.4-6.04-23.99-5.5-38.85,3.08c-32.74,18.91-59.28,69.6-59.28,113.25
					c0,23.89,7.96,40.71,20.52,47.94c2.15,1.24,10.14,5.86,13.41,7.74C163.03,292.88,155.44,276.28,155.44,252.93z"/>
				<path class="st5" d="M155.44,252.93c0-43.65,26.54-94.34,59.27-113.25c14.42-8.33,27.63-9.09,37.91-3.61
					c-3.23-1.87-11.17-6.46-13.31-7.69c-10.4-6.04-23.99-5.5-38.85,3.08c-32.74,18.91-59.28,69.6-59.28,113.25
					c0,23.89,7.96,40.71,20.52,47.94c2.15,1.24,10.14,5.86,13.41,7.74C163.03,292.88,155.44,276.28,155.44,252.93z"/>
			</g>
			<path class="st4" d="M237.97,148.83c5.17,6.9,7.94,17.88,7.33,32.15c-1.49,35.03-22.78,76.64-47.55,92.93
				c-7.52,4.95-14.5,6.99-20.53,6.46c7.53,10.03,20.13,11.42,34.78,1.77c24.77-16.29,46.06-57.9,47.55-92.93
				C260.6,164.83,251.78,150.06,237.97,148.83z"/>
			<path class="st6" d="M237.97,148.83c5.17,6.9,7.94,17.88,7.33,32.15c-1.49,35.03-22.78,76.64-47.55,92.93
				c-7.52,4.95-14.5,6.99-20.53,6.46c7.53,10.03,20.13,11.42,34.78,1.77c24.77-16.29,46.06-57.9,47.55-92.93
				C260.6,164.83,251.78,150.06,237.97,148.83z"/>
			<g>
				<path class="st4" d="M170.54,159.55l14.25,8.23c0.38-0.51,0.76-1.03,1.14-1.53l-14.25-8.23
					C171.29,158.53,170.92,159.04,170.54,159.55z"/>
				<path class="st4" d="M163.95,207.21l-14.26-8.23c-0.2,0.56-0.39,1.12-0.58,1.68l14.26,8.23
					C163.57,208.33,163.75,207.76,163.95,207.21z"/>
				<path class="st4" d="M228.99,124.74l14.26,8.23c0.58,0.09,1.16,0.2,1.73,0.32l-14.26-8.23
					C230.16,124.94,229.58,124.83,228.99,124.74z"/>
				<path class="st4" d="M157.45,231.38c0.11-0.62,0.23-1.25,0.35-1.87l-14.26-8.23c-0.12,0.62-0.24,1.25-0.36,1.87L157.45,231.38z"
					/>
				<path class="st4" d="M184.55,143.55l14.25,8.23c0.49-0.47,0.98-0.93,1.48-1.39l-14.25-8.23
					C185.53,142.61,185.04,143.08,184.55,143.55z"/>
				<path class="st4" d="M157.52,272.52c-0.13-0.55-0.25-1.11-0.37-1.68l-0.11-0.25l-14.18-8.19c0.13,0.64,0.27,1.26,0.41,1.88
					L157.52,272.52z"/>
				<path class="st4" d="M216.57,125.11c-0.61,0.12-1.22,0.28-1.84,0.43l14.25,8.23c0.62-0.15,1.24-0.3,1.85-0.42L216.57,125.11z"/>
				<path class="st4" d="M215.6,139.2l-14.25-8.23c-0.3,0.16-0.59,0.31-0.88,0.48c-0.29,0.17-0.57,0.35-0.86,0.53l14.25,8.23
					c0.29-0.17,0.57-0.36,0.86-0.52C215.01,139.51,215.3,139.36,215.6,139.2z"/>
				<path class="st4" d="M158.46,178.98l14.25,8.23c0.27-0.53,0.56-1.04,0.84-1.57l-14.25-8.23
					C159.02,177.94,158.73,178.46,158.46,178.98z"/>
				<path class="st4" d="M163.57,288.22c-0.32-0.54-0.63-1.1-0.93-1.66l-14.24-8.22c0.3,0.57,0.62,1.12,0.94,1.67L163.57,288.22z"/>
				<path class="st4" d="M141.19,244.86l14.26,8.23c0-0.05,0-0.11,0-0.16c0-0.62,0.02-1.24,0.03-1.86l-14.26-8.23
					c-0.01,0.62-0.03,1.24-0.03,1.86C141.19,244.76,141.19,244.81,141.19,244.86z"/>
			</g>
		</g>
		<g>
			<path class="st4" d="M214.71,139.68c-32.73,18.91-59.27,69.6-59.27,113.25s26.54,63.71,59.27,44.81
				c32.74-18.9,59.27-69.6,59.27-113.25S247.45,120.78,214.71,139.68z M259.55,189.21c-1.49,35.03-22.78,76.64-47.55,92.93
				c-24.76,16.29-43.62,1.1-42.13-33.93c1.5-35.03,22.79-76.64,47.55-92.93C242.19,138.99,261.05,154.18,259.55,189.21z"/>
			<g class="st6">
				<path d="M202.58,168.46c0.48-0.54,0.95-1.08,1.44-1.6l-3.74-16.47c-0.5,0.45-0.99,0.91-1.49,1.38L202.58,168.46z"/>
				<path d="M213.84,140.2l0,17.66c0.58-0.45,1.17-0.89,1.75-1.3l0-17.36c-0.29,0.16-0.58,0.33-0.87,0.5
					C214.42,139.85,214.13,140.02,213.84,140.2z"/>
				<path d="M225.89,150.84c0.64-0.25,1.28-0.47,1.91-0.68l3.03-16.82c-0.62,0.12-1.24,0.26-1.86,0.41L225.89,150.84z"/>
				<path d="M177.57,211.61c0.2-0.56,0.41-1.11,0.62-1.67l-14.25-2.74c-0.2,0.56-0.4,1.12-0.59,1.68L177.57,211.61z"/>
				<path d="M184.3,195.98c0.27-0.53,0.53-1.07,0.8-1.59l-11.57-8.74c-0.28,0.52-0.56,1.05-0.83,1.57L184.3,195.98z"/>
				<path d="M271.57,163.53l-12.62,11.79c0.1,0.71,0.19,1.42,0.27,2.15l12.81-11.98C271.89,164.83,271.74,164.17,271.57,163.53z"/>
				<path d="M170.3,242.5l-14.84,8.57c-0.01,0.63-0.02,1.25-0.02,1.87c0,0.06,0,0.11,0,0.17l14.65-8.46
					C170.15,243.93,170.23,243.21,170.3,242.5z"/>
				<path d="M172.7,228.01c0.15-0.63,0.31-1.27,0.46-1.9l-15.38,3.38c-0.12,0.62-0.24,1.25-0.35,1.88L172.7,228.01z"/>
				<path d="M237.7,148.82c0.6,0.05,1.2,0.12,1.78,0.22l5.46-15.77c-0.58-0.12-1.16-0.23-1.75-0.33L237.7,148.82z"/>
				<path d="M255.14,161.94c0.29,0.59,0.56,1.21,0.82,1.84l10.3-13.87c-0.32-0.56-0.64-1.1-0.97-1.63L255.14,161.94z"/>
				<path d="M247.86,152.65c0.47,0.36,0.93,0.74,1.38,1.15l7.78-14.86c-0.47-0.37-0.94-0.72-1.43-1.06L247.86,152.65z"/>
				<path d="M192.67,181.44c0.36-0.55,0.72-1.1,1.08-1.63l-7.83-13.56c-0.38,0.51-0.76,1.02-1.14,1.53L192.67,181.44z"/>
				<path d="M227.15,268.63c-0.48,0.54-0.95,1.08-1.44,1.6l3.76,16.52c0.5-0.46,0.99-0.94,1.48-1.41L227.15,268.63z"/>
				<path d="M245.74,240.22c-0.26,0.54-0.53,1.07-0.79,1.6l11.58,8.76c0.28-0.53,0.54-1.06,0.81-1.59L245.74,240.22z"/>
				<path d="M237.28,255.2c-0.36,0.55-0.72,1.09-1.08,1.63l7.85,13.6c0.38-0.51,0.77-1.02,1.14-1.53L237.28,255.2z"/>
				<path d="M252.42,224.23c-0.2,0.56-0.39,1.12-0.59,1.67l14.2,2.73c0.19-0.56,0.39-1.12,0.58-1.68L252.42,224.23z"/>
				<path d="M257.11,207.64c-0.14,0.63-0.26,1.26-0.41,1.89l15.26-3.36c0.11-0.62,0.22-1.24,0.32-1.87L257.11,207.64z"/>
				<path d="M273.96,182.65l-14.52,8.38c-0.04,0.7-0.09,1.4-0.15,2.11l14.68-8.48c0-0.06,0-0.11,0-0.17
					C273.98,183.87,273.98,183.26,273.96,182.65z"/>
				<path d="M215.59,297.21v-17.64c-0.58,0.45-1.17,0.88-1.75,1.3v17.36c0.29-0.16,0.58-0.32,0.88-0.49
					C215.01,297.58,215.3,297.38,215.59,297.21z"/>
				<path d="M173.81,274.44c-0.27-0.61-0.53-1.24-0.78-1.9l-10.39,14c0.31,0.57,0.62,1.13,0.94,1.68L173.81,274.44z"/>
				<path d="M180.94,284.29c-0.46-0.38-0.91-0.78-1.35-1.21l-7.8,14.91c0.46,0.38,0.93,0.74,1.41,1.09L180.94,284.29z"/>
				<path d="M203.2,286.73c-0.64,0.24-1.27,0.46-1.9,0.65l-3.02,16.77c0.61-0.12,1.23-0.25,1.86-0.4L203.2,286.73z"/>
				<path d="M191.15,288.56c-0.6-0.06-1.19-0.15-1.77-0.27l-5.45,15.74c0.57,0.13,1.15,0.25,1.74,0.35L191.15,288.56z"/>
				<path d="M170.27,260.61c-0.08-0.72-0.15-1.46-0.21-2.2l-12.98,12.13c0.14,0.67,0.28,1.34,0.43,1.99L170.27,260.61z"/>
			</g>
		</g>
		<g>
			<polygon class="st1" points="230.71,369.48 162.97,330.37 162.97,293.34 177.23,301.57 195.07,311.88 195.07,324.22 
				212.89,334.5 212.89,346.85 230.71,357.13 			"/>
			<g>
				<polygon class="st7" points="177.25,301.59 252.09,258.38 269.9,268.67 195.07,311.88 				"/>
				<polygon class="st0" points="195.07,311.88 195.07,324.22 269.9,281.01 269.9,268.67 				"/>
			</g>
			<g>
				<polygon class="st7" points="195.07,324.22 269.9,281.01 287.72,291.3 212.89,334.5 				"/>
				<polygon class="st0" points="212.89,334.5 212.89,346.85 287.72,303.64 287.72,291.3 				"/>
			</g>
			<g>
				<polygon class="st7" points="212.89,346.85 287.72,303.64 305.54,313.93 230.71,357.13 				"/>
				<polygon class="st0" points="230.71,357.13 230.71,369.48 305.54,326.27 305.54,313.93 				"/>
			</g>
		</g>
		<g>
			<path class="st4" d="M252.14,184.98c-1.49,35.03-22.78,76.64-47.55,92.93c-9.2,6.05-17.58,7.76-24.42,5.71
				c-7.05-6.39-11.02-18.62-10.3-35.42c1.5-35.03,22.79-76.64,47.55-92.93c9.21-6.06,17.61-7.76,24.44-5.7
				C248.9,155.97,252.86,168.2,252.14,184.98z"/>
			<path class="st8" d="M252.14,184.98c-1.49,35.03-22.78,76.64-47.55,92.93c-9.2,6.05-17.58,7.76-24.42,5.71
				c-7.05-6.39-11.02-18.62-10.3-35.42c1.5-35.03,22.79-76.64,47.55-92.93c9.21-6.06,17.61-7.76,24.44-5.7
				C248.9,155.97,252.86,168.2,252.14,184.98z"/>
			<path class="st9" d="M204.48,260c-7.67,0.77-14.89,4.64-20.16,10.25c-2.86,3.04-5.15,6.58-6.88,10.39
				c0.85,1.1,1.76,2.11,2.74,2.99c1.44,0.43,2.95,0.69,4.52,0.78c0.4-1,0.7-2.05,1.05-3.06c3.28-9.43,12.76-16.35,22.74-16.61
				c3.42-0.09,6.83,0.53,10.24,0.8c1.35-1.48,2.67-3.03,3.97-4.64C216.68,260.6,210.45,259.4,204.48,260z M203.01,208.79
				c7.04,0.91,14.64,1.3,20.76-2.29c6.93-4.06,10.21-12.11,13.56-19.4c3.1-6.76,7.36-13.91,14.15-16.54
				c-1.41-9.47-4.79-16.61-9.62-20.99c-3.08-0.93-6.49-1.09-10.13-0.43c-3.4,3.75-5.81,8.54-7.22,13.45
				c-1.61,5.59-2.17,11.54-4.74,16.76c-2.56,5.2-7.1,9.39-12.49,11.53c-4.28,1.7-8.93,2.11-13.48,2.81
				c-3.14,0.48-6.32,1.14-9.39,2.06c-2.35,4.69-4.48,9.55-6.34,14.51c1.23-0.62,2.5-1.16,3.83-1.57
				C188.68,206.59,195.97,207.89,203.01,208.79z M210.17,173.76c2.25-3.87,3.04-8.38,4.23-12.69c0.44-1.6,0.96-3.18,1.52-4.74
				c-1.6,1.13-3.19,2.35-4.75,3.68c-2.27,5.49-4.46,11.01-8.64,15.13c-2.11,2.08-4.67,3.7-7.45,4.74c-0.44,0.16-1,0.28-1.62,0.37
				c-1.01,1.5-2,3.03-2.97,4.6c2.77-0.2,5.95-0.9,6.68-1.14C202.48,181.98,207.37,178.58,210.17,173.76z M252.2,179.83
				c-2.11,1.1-3.99,2.58-5.24,3.95c-3.71,4.07-5.72,9.37-7.95,14.41c-3.18,7.18-7.33,14.49-14.24,18.21
				c-4.59,2.47-9.95,3.09-15.16,3.23c-9.85,0.27-19.85-0.97-29.49,1.11c-2.05,0.44-4.09,1.1-6.06,1.93
				c-0.65,2.38-1.23,4.77-1.75,7.15c2.25-1.17,4.59-2.13,7.07-2.76c14.23-3.6,29.96,4.3,43.63-1.05
				c9.98-3.9,16.09-13.84,20.98-23.37c1.99-3.89,4.15-8.06,7.59-10.58c0.27-2.38,0.46-4.74,0.56-7.08
				C252.21,183.21,252.23,181.5,252.2,179.83z M216.7,238.12c-7.69,0.28-15.39-0.44-23.08-0.55c-3.94-0.06-7.95,0.05-11.72,1.2
				c-3.37,1.03-6.44,2.87-9.32,4.89c-0.87,0.61-1.71,1.25-2.54,1.91c-0.06,0.88-0.12,1.76-0.16,2.64
				c-0.43,10.15,0.85,18.62,3.49,25.15c1.74-1.41,3.16-3.22,4.5-5.04c5.28-7.15,10.38-15.06,18.41-18.89
				c8.61-4.11,18.76-2.64,28.12-4.51c4.07-0.81,7.99-2.3,11.6-4.35c1.47-2.77,2.87-5.6,4.18-8.48c-0.4,0.24-0.8,0.48-1.21,0.7
				C232.2,236.51,224.39,237.84,216.7,238.12z"/>
		</g>
	</g>
</g>
<g id="Sparkles_00000161631691320181145810000004106055268122971800_">
	<g id="Sparkles">
		<path class="st4" d="M269.61,123.37c0,3.4-0.65,6.41-4.8,7.14c4.26,0.18,4.56,3.03,4.8,6.95c0.13-3.92,0.5-6.76,4.37-6.95
			C269.98,129.86,269.61,126.77,269.61,123.37z"/>
		<path class="st4" d="M172.55,304.38c0,3.4-0.65,6.41-4.8,7.14c4.26,0.18,4.56,3.03,4.8,6.95c0.13-3.92,0.5-6.76,4.37-6.95
			C172.92,310.86,172.55,307.78,172.55,304.38z"/>
		<path class="st4" d="M141.28,199.62c0,1.48-0.28,2.8-2.1,3.12c1.86,0.08,1.99,1.32,2.1,3.04c0.06-1.71,0.22-2.95,1.91-3.04
			C141.44,202.45,141.28,201.11,141.28,199.62z"/>
		<path class="st10" d="M133.1,205.47c0,3.4-0.65,6.41-4.8,7.14c4.26,0.18,4.56,3.03,4.8,6.95c0.13-3.92,0.5-6.76,4.37-6.95
			C133.47,211.95,133.1,208.86,133.1,205.47z"/>
		<path class="st10" d="M129.2,188.43c0,1.74-0.33,3.29-2.47,3.67c2.19,0.09,2.34,1.55,2.47,3.57c0.07-2.01,0.26-3.47,2.24-3.57
			C129.39,191.76,129.2,190.18,129.2,188.43z"/>
		<path class="st10" d="M258.06,113.15c0.02,1.99-0.05,3.9-2.92,4.35c3.04-0.04,2.81,1.87,2.95,4.27c0.08-2.4,0.29-4.12,2.66-4.23
			C258.3,117.13,258.37,116,258.06,113.15z"/>
		<path class="st10" d="M283.02,205.7c-0.21,3.75-0.51,5.38-3.9,5.83c3.46,0.19,3.74,2.47,3.94,5.67c0.11-3.2,0.39-5.52,3.54-5.67
			C283.34,210.98,283.26,209.5,283.02,205.7z"/>
		<path class="st10" d="M158.77,304.41c-0.12,2.18-0.29,3.13-2.27,3.39c2.01,0.11,2.18,1.44,2.29,3.3c0.06-1.86,0.23-3.21,2.06-3.3
			C158.96,307.49,158.92,306.63,158.77,304.41z"/>
		<path class="st10" d="M275.92,119.89c0.01,1.2-0.03,2.36-1.77,2.63c1.84-0.02,1.7,1.13,1.79,2.58c0.05-1.45,0.18-2.49,1.61-2.56
			C276.06,122.3,276.1,121.62,275.92,119.89z"/>
		<path class="st10" d="M279.69,216.6c0.01,1.2-0.03,2.36-1.77,2.63c1.84-0.02,1.7,1.13,1.79,2.58c0.05-1.45,0.18-2.49,1.61-2.56
			C279.83,219.01,279.87,218.32,279.69,216.6z"/>
		<path class="st10" d="M168.02,299.64c0.01,1.2-0.03,2.36-1.77,2.63c1.84-0.02,1.7,1.13,1.79,2.58c0.05-1.45,0.18-2.49,1.61-2.56
			C168.17,302.05,168.21,301.36,168.02,299.64z"/>
	</g>
</g>
<g id="Number_2">
	<polygon id="Shadow_00000160173221323358843700000003889731603758823313_" class="st1" points="205.45,383 180.42,368.55 
		164.99,377.46 137.48,361.58 114.66,374.75 142.17,390.63 83.47,424.52 101.84,435.13 250.03,474.91 274.56,460.75 135.7,423.27 
		167.2,405.08 214.73,432.53 237.55,419.35 190.01,391.91 	"/>
	<g id="_x34__00000037656730630470431360000009267136762136121276_">
		<g>
			<path class="st4" d="M138.66,283.77l-1.18,0.68v-38.43l-14.25-8.23l-17.64,10.18l14.55-54.7l-14.25-8.23l-24.53,14.16
				L41.71,347.44v21.21l14.25,8.23l44.44-25.66v15.3l14.25,8.23l22.82-13.17v-31.76l15.44-8.91V292L138.66,283.77z M100.41,305.86
				l-12.07,6.97l12.07-45.38V305.86z"/>
			<path class="st11" d="M138.66,283.77l-1.18,0.68v-38.43l-14.25-8.23l-17.64,10.18l14.55-54.7l-14.25-8.23l-24.53,14.16
				L41.71,347.44v21.21l14.25,8.23l44.44-25.66v15.3l14.25,8.23l22.82-13.17v-31.76l15.44-8.91V292L138.66,283.77z M100.41,305.86
				l-12.07,6.97l12.07-45.38V305.86z"/>
			<polygon class="st4" points="137.48,300.91 137.48,246.03 114.66,259.2 114.66,314.09 83.16,332.27 120.13,193.28 95.61,207.44 
				55.96,355.66 55.96,376.88 114.66,342.99 114.66,374.75 137.48,361.58 137.48,329.81 152.91,320.9 152.91,292 			"/>
			<polygon class="st5" points="137.48,300.91 137.48,246.03 114.66,259.2 114.66,314.09 83.16,332.27 120.13,193.28 95.61,207.44 
				55.96,355.66 55.96,376.88 114.66,342.99 114.66,374.75 137.48,361.58 137.48,329.81 152.91,320.9 152.91,292 			"/>
			<polygon class="st4" points="120.13,193.28 105.88,185.05 81.35,199.21 95.61,207.44 			"/>
			<polygon class="st12" points="120.13,193.28 105.88,185.05 81.35,199.21 95.61,207.44 			"/>
			<polygon class="st4" points="123.22,237.8 137.48,246.03 114.66,259.2 104.21,253.17 105.58,247.98 			"/>
			<polygon class="st12" points="123.22,237.8 137.48,246.03 114.66,259.2 104.21,253.17 105.58,247.98 			"/>
			<polygon class="st4" points="114.66,314.09 100.41,305.86 88.34,312.83 83.16,332.27 			"/>
			<polygon class="st12" points="114.66,314.09 100.41,305.86 88.34,312.83 83.16,332.27 			"/>
			<polygon class="st4" points="152.91,292 138.66,283.77 137.48,284.46 137.48,300.91 			"/>
			<polyline class="st12" points="137.48,300.91 152.91,292 138.66,283.77 137.48,284.46 137.48,300.91 			"/>
		</g>
		<polygon class="st4" points="55.96,355.66 41.71,347.44 81.35,199.21 95.61,207.44 		"/>
		<polygon class="st6" points="55.96,355.66 41.71,347.44 81.35,199.21 95.61,207.44 		"/>
	</g>
</g>
<g id="Number_1_00000135679074354240855910000004129052739325724048_">
	<path id="Shadow_00000044140171533648521590000014778082226169815434_" class="st1" d="M367.25,289.58l31.5-18.18l47.53,27.44
		l22.82-13.17l-47.53-27.44l15.44-8.91l-25.03-14.45l-15.44,8.91l-27.51-15.88l-22.82,13.17l27.51,15.88l-58.7,33.89l18.37,10.61
		l148.18,39.78l2.88-1.66c1.41-5.69,2.58-11.47,3.51-17.4L367.25,289.58z"/>
	<g id="_x34__00000126324285101363852590000000744743773886877358_">
		<g>
			<path class="st4" d="M370.21,150.09l-1.18,0.68v-38.43l-14.25-8.23l-17.64,10.18l14.55-54.7l-14.25-8.23L312.9,65.53
				l-39.64,148.22v21.21l14.25,8.23l44.44-25.66v15.3l14.25,8.23l22.82-13.17v-31.76l15.44-8.91v-28.9L370.21,150.09z
				 M331.95,172.18l-12.07,6.97l12.07-45.38V172.18z"/>
			<path class="st11" d="M370.21,150.09l-1.18,0.68v-38.43l-14.25-8.23l-17.64,10.18l14.55-54.7l-14.25-8.23L312.9,65.53
				l-39.64,148.22v21.21l14.25,8.23l44.44-25.66v15.3l14.25,8.23l22.82-13.17v-31.76l15.44-8.91v-28.9L370.21,150.09z
				 M331.95,172.18l-12.07,6.97l12.07-45.38V172.18z"/>
			<polygon class="st4" points="369.03,167.23 369.03,112.35 346.21,125.52 346.21,180.4 314.71,198.59 351.68,59.6 327.15,73.76 
				287.51,221.98 287.51,243.19 346.21,209.3 346.21,241.07 369.03,227.89 369.03,196.13 384.46,187.22 384.46,158.32 			"/>
			<polygon class="st5" points="369.03,167.23 369.03,112.35 346.21,125.52 346.21,180.4 314.71,198.59 351.68,59.6 327.15,73.76 
				287.51,221.98 287.51,243.19 346.21,209.3 346.21,241.07 369.03,227.89 369.03,196.13 384.46,187.22 384.46,158.32 			"/>
			<polygon class="st4" points="351.68,59.6 337.43,51.37 312.9,65.53 327.15,73.76 			"/>
			<polygon class="st12" points="351.68,59.6 337.43,51.37 312.9,65.53 327.15,73.76 			"/>
			<polygon class="st4" points="354.77,104.12 369.03,112.35 346.21,125.52 335.75,119.48 337.13,114.3 			"/>
			<polygon class="st12" points="354.77,104.12 369.03,112.35 346.21,125.52 335.75,119.48 337.13,114.3 			"/>
			<polygon class="st4" points="346.21,180.4 331.95,172.18 319.88,179.15 314.71,198.59 			"/>
			<polygon class="st12" points="346.21,180.4 331.95,172.18 319.88,179.15 314.71,198.59 			"/>
			<polygon class="st4" points="384.46,158.32 370.21,150.09 369.03,150.77 369.03,167.23 			"/>
			<polyline class="st12" points="369.03,167.23 384.46,158.32 370.21,150.09 369.03,150.77 369.03,167.23 			"/>
		</g>
		<polygon class="st4" points="287.51,221.98 273.26,213.75 312.9,65.53 327.15,73.76 		"/>
		<polygon class="st6" points="287.51,221.98 273.26,213.75 312.9,65.53 327.15,73.76 		"/>
	</g>
</g>
<g id="Speech_Bubble">
	<g id="Speech_Bubble_00000029750407760576005970000012978528640348479922_">
		<g id="Speech_Bubble_00000145750569446551329510000008598601109193316738_">
			<g>
				<path class="st4" d="M153.37,113.46c0.58-2.74-10.59,3.71-11.17,6.45l3.6,9.69c0.14,0.32,0.35,0.55,0.6,0.71
					c0.79,0.49,3.7,2.13,3.95,2.28c0.8,0.49,1.97,0.18,2.3-0.85l4.66-15.99C157.61,114.39,153.37,113.46,153.37,113.46z"/>
				<path class="st13" d="M153.37,113.46c0.58-2.74-10.59,3.71-11.17,6.45l3.6,9.69c0.14,0.32,0.35,0.55,0.6,0.71
					c0.79,0.49,3.7,2.13,3.95,2.28c0.8,0.49,1.97,0.18,2.3-0.85l4.66-15.99C157.61,114.39,153.37,113.46,153.37,113.46z"/>
			</g>
			<path class="st4" d="M191.35,59.96l-93.2,53.77c-0.83,0.48-1.5,1.64-1.5,2.6v30.41c0,0.96,0.67,2.12,1.5,2.59l0.94,0.54
				c0.83,0.47,2.17,0.47,3-0.01l93.2-53.83c0.83-0.48,1.5-1.64,1.5-2.6V63.08c0-0.96-0.67-2.12-1.5-2.59l-0.94-0.54
				C193.52,59.48,192.18,59.48,191.35,59.96z"/>
			<path class="st13" d="M191.35,59.96l-93.2,53.77c-0.83,0.48-1.5,1.64-1.5,2.6v30.41c0,0.96,0.67,2.12,1.5,2.59l0.94,0.54
				c0.83,0.47,2.17,0.47,3-0.01l93.2-53.83c0.83-0.48,1.5-1.64,1.5-2.6V63.08c0-0.96-0.67-2.12-1.5-2.59l-0.94-0.54
				C193.52,59.48,192.18,59.48,191.35,59.96z"/>
			<g>
				<path class="st4" d="M196.79,63.08v0.59c0-1.06-1.15-1.73-2.08-1.19l-92.06,53.18c-0.64,0.36-1.15,0.89-1.51,1.51
					c-0.01,0.02-0.02,0.03-0.02,0.05l-4.05-2.34c0.28-0.48,0.65-0.9,1.08-1.14l93.19-53.77c0.83-0.48,2.18-0.48,3-0.01l0.93,0.54
					C196.12,60.96,196.79,62.12,196.79,63.08z"/>
				<path class="st14" d="M196.79,63.08v0.59c0-1.06-1.15-1.73-2.08-1.19l-92.06,53.18c-0.64,0.36-1.15,0.89-1.51,1.51
					c-0.01,0.02-0.02,0.03-0.02,0.05l-4.05-2.34c0.28-0.48,0.65-0.9,1.08-1.14l93.19-53.77c0.83-0.48,2.18-0.48,3-0.01l0.93,0.54
					C196.12,60.96,196.79,62.12,196.79,63.08z"/>
			</g>
			<g>
				<path class="st1" d="M195.41,62.82c-0.15,0-0.29,0.04-0.42,0.12l-92.06,53.18c-1.11,0.64-1.79,1.83-1.79,3.11v29.09
					c0,0.28,0.06,0.94,0.61,0.94c0.19,0,0.42-0.07,0.65-0.21l44.72-25.83l2.99,8.28c0.57,1.32,2.47,1.22,2.91-0.15l4.04-13.87
					l37.4-21.59c1.25-0.72,1.8-1.44,1.8-2.35V63.67C196.25,63.15,195.81,62.82,195.41,62.82z"/>
				<path class="st4" d="M101.74,149.79c-0.69,0-1.14-0.58-1.14-1.48v-29.09c0-1.47,0.79-2.83,2.06-3.57l92.06-53.18
					c0.22-0.12,0.45-0.19,0.69-0.19c0.66,0,1.38,0.53,1.38,1.38v29.86c0,1.46-1.18,2.3-2.07,2.81l-37.21,21.48l-3.98,13.67
					c-0.27,0.85-1.01,1.42-1.89,1.46c-0.87,0.04-1.67-0.45-2.02-1.25l-2.78-7.71l-44.16,25.51
					C102.34,149.7,102.03,149.79,101.74,149.79z M195.41,63.36c-0.05,0-0.1,0.01-0.15,0.04l-92.06,53.18
					c-0.94,0.54-1.53,1.56-1.53,2.64v29.09c0,0.25,0.06,0.39,0.08,0.42c0.02-0.01,0.15-0.02,0.38-0.15l45.27-26.15l3.2,8.88
					c0.2,0.45,0.64,0.59,0.97,0.58c0.34-0.02,0.76-0.21,0.92-0.71l4.1-14.07l0.19-0.11l37.4-21.59c1.35-0.78,1.53-1.39,1.53-1.89
					V63.67C195.72,63.44,195.5,63.36,195.41,63.36z"/>
			</g>
		</g>
		<path class="st15" d="M109.74,138.01c-0.59,0-1.28-0.42-1.28-1.59v-14.51c0-0.96,0.41-1.72,1.16-2.15l0.34-0.2
			c0.28-0.16,0.56-0.24,0.84-0.24c0.22,0,0.96,0.07,1.31,0.98l1.7,4.25v-5.73c0-0.95,0.41-1.72,1.16-2.15l0.19-0.11
			c0.28-0.16,0.55-0.24,0.82-0.24c0.49,0,1.04,0.28,1.23,1.03c0.07-0.26,0.17-0.52,0.31-0.78l0.55-1.05
			c0.31-0.59,0.72-1.04,1.2-1.32l3.31-1.91c0.31-0.18,0.63-0.27,0.93-0.27c0.36,0,0.7,0.12,0.98,0.36l0.02,0.02
			c0.09-1.11,0.74-1.65,1.15-1.88l5.38-3.11c0.28-0.17,0.55-0.25,0.82-0.25c0.59,0,1.29,0.42,1.29,1.61v0.25
			c0,0.92-0.41,1.67-1.16,2.1l-1.23,0.71c-0.08,0.04-0.21,0.12-0.21,0.5v12.42c0,0.95-0.41,1.72-1.15,2.15l-0.19,0.11
			c-0.28,0.16-0.55,0.24-0.82,0.24c-0.62,0-1.29-0.42-1.29-1.61c0,0,0-8.92,0-11.7l-0.5,0.29c-0.29,0.17-0.56,0.25-0.83,0.25
			c-0.02,0-0.04,0-0.06,0v11.68c0,0.59-0.15,1.18-0.44,1.76l-0.55,1.05c-0.31,0.59-0.72,1.04-1.2,1.32l-3.29,1.9
			c-0.32,0.18-0.64,0.28-0.95,0.28c-0.34,0-0.66-0.11-0.93-0.32l-0.56-0.42c-0.18-0.14-0.38-0.34-0.52-0.65v1.37
			c0,0.94-0.41,1.69-1.16,2.13l-0.19,0.11c-0.28,0.16-0.56,0.25-0.84,0.25c-0.22,0-0.95-0.07-1.3-0.95l-1.86-4.6v6.15
			c0,0.94-0.41,1.69-1.16,2.13l-0.19,0.11C110.28,137.93,110.01,138.01,109.74,138.01z M120.71,117.62c-0.08,0.04-0.2,0.12-0.2,0.48
			c0,0,0,7.19,0,9.66l1.53-0.89c0.08-0.04,0.21-0.12,0.21-0.48c0,0,0-7.19,0-9.66L120.71,117.62z M136.26,122.7
			c-0.59,0-1.28-0.42-1.28-1.59v-14.49c0-0.94,0.41-1.7,1.16-2.13l5.36-3.1c0.29-0.17,0.56-0.25,0.82-0.25
			c0.43,0,0.91,0.22,1.14,0.79c0.06-0.16,0.13-0.32,0.21-0.49l0.55-1.05c0.31-0.59,0.72-1.04,1.2-1.32l3.31-1.91
			c0.31-0.18,0.62-0.27,0.93-0.27c0.36,0,0.7,0.12,0.98,0.35l0.52,0.39c0.18,0.14,0.38,0.34,0.52,0.65v-1.37
			c0-0.94,0.41-1.69,1.16-2.13l0.19-0.11c0.28-0.16,0.55-0.24,0.82-0.24c0.59,0,1.28,0.42,1.28,1.59c0,0,0,8.94,0,11.73l1.53-0.89
			c0.08-0.04,0.21-0.12,0.21-0.5V93.94c0-0.94,0.41-1.69,1.16-2.13l0.19-0.11c0.28-0.16,0.55-0.24,0.82-0.24
			c0.4,0,0.83,0.18,1.08,0.66v-0.03c0-1.29,0.72-1.9,1.16-2.15l0.34-0.2c0.29-0.17,0.56-0.25,0.84-0.25c0.28,0,0.97,0.1,1.31,0.98
			l1.7,4.25v-5.73c0-0.95,0.41-1.72,1.16-2.15l0.19-0.11c0.28-0.17,0.55-0.25,0.82-0.25c0.4,0,0.84,0.19,1.09,0.67v-0.02
			c0-0.94,0.41-1.7,1.16-2.13l4.34-2.51c0.31-0.18,0.63-0.27,0.93-0.27c0.36,0,0.7,0.12,0.98,0.35l0.51,0.39
			c0.33,0.25,0.72,0.74,0.72,1.68v11.67c0,0.59-0.15,1.18-0.44,1.76l-0.55,1.05c-0.31,0.6-0.72,1.04-1.2,1.32l-4.34,2.51
			c-0.29,0.17-0.56,0.25-0.83,0.25c-0.4,0-0.83-0.19-1.08-0.66v0.05c0,0.94-0.41,1.7-1.16,2.13l-0.19,0.11
			c-0.29,0.17-0.56,0.25-0.84,0.25c-0.22,0-0.95-0.07-1.3-0.95l-1.86-4.6v6.15c0,0.94-0.41,1.7-1.16,2.13l-0.18,0.11
			c-0.29,0.17-0.56,0.25-0.83,0.25c-0.49,0-1.04-0.28-1.22-1.04c-0.07,0.26-0.17,0.51-0.3,0.77l-0.55,1.05
			c-0.31,0.61-0.71,1.06-1.2,1.34l-3.29,1.9c-0.31,0.18-0.63,0.27-0.93,0.27c-0.36,0-0.7-0.12-0.98-0.36l-0.53-0.4
			c-0.18-0.14-0.38-0.34-0.52-0.66c0,0.58-0.15,1.17-0.44,1.75l-0.55,1.05c-0.31,0.59-0.71,1.04-1.2,1.32l-3.29,1.9
			c-0.32,0.19-0.64,0.28-0.95,0.28c-0.34,0-0.66-0.11-0.93-0.32l-0.56-0.43c-0.33-0.25-0.72-0.74-0.72-1.67v-2.83
			c-0.19,0.3-0.46,0.56-0.79,0.75l-3.82,2.2c-0.09,0.05-0.21,0.12-0.21,0.48v4.68c0,0.94-0.41,1.7-1.16,2.13l-0.19,0.11
			C136.8,122.62,136.53,122.7,136.26,122.7z M146.89,102.51c-0.09,0.05-0.2,0.12-0.2,0.48c0,0,0,7.19,0,9.66l1.54-0.89
			c0.08-0.04,0.2-0.12,0.2-0.48c0,0,0-7.19,0-9.66L146.89,102.51z M143.23,104.37c-0.19,0.3-0.46,0.56-0.79,0.75l-3.82,2.2
			c-0.08,0.05-0.21,0.12-0.21,0.48c0,0,0,1.97,0,3.12l3.07-1.77c0.29-0.17,0.56-0.25,0.82-0.25c0.32,0,0.66,0.12,0.91,0.41V104.37z
			 M172.39,87.83c-0.09,0.05-0.21,0.12-0.21,0.48c0,0,0,7.15,0,9.62l1.54-0.89c0.08-0.04,0.21-0.12,0.21-0.48c0,0,0-7.15,0-9.62
			L172.39,87.83z M186.68,95.61c-0.29,0-1-0.1-1.33-1.04l-0.94-2.45c-0.12-0.28-0.21-0.66-0.28-1.15l-0.58-4.56
			c-0.03-0.38-0.04-0.58-0.04-0.67c0-0.12,0.01-0.34,0.04-0.66l0.58-5.27c0.06-0.52,0.15-0.97,0.25-1.35l0.95-3.56
			c0.22-0.78,0.63-1.34,1.23-1.69l0.34-0.2c0.29-0.17,0.56-0.25,0.83-0.25h0.06l0.15,0.02l0.17,0.05c0.28,0.11,0.81,0.41,0.81,1.26
			c0,0.24-0.03,0.48-0.1,0.73l-0.97,3.38c-0.1,0.34-0.17,0.7-0.21,1.07l-0.51,5.01c-0.02,0.23-0.03,0.4-0.03,0.49
			c0,0.09,0.01,0.25,0.03,0.47l0.51,4.38c0.03,0.27,0.09,0.51,0.17,0.69l0.97,2.25c0.1,0.23,0.15,0.49,0.15,0.77
			c0,0.36-0.09,0.71-0.27,1.03c-0.19,0.34-0.46,0.62-0.8,0.82l-0.35,0.2C187.23,95.53,186.95,95.61,186.68,95.61L186.68,95.61z
			 M181.35,93.19c-0.59,0-1.27-0.4-1.27-1.54v-1.02c0-1.31,0.72-1.92,1.15-2.17l0.36-0.21c0.28-0.16,0.55-0.24,0.81-0.24
			c0.63,0,1.29,0.43,1.29,1.63v1.02c0,0.91-0.41,1.65-1.16,2.08l-0.36,0.21C181.89,93.11,181.62,93.19,181.35,93.19z M181.35,84.86
			c-0.59,0-1.27-0.4-1.27-1.54v-1.02c0-1.31,0.72-1.92,1.15-2.17l0.36-0.21c0.28-0.16,0.55-0.24,0.81-0.24
			c0.63,0,1.29,0.43,1.29,1.63v1.02c0,0.91-0.41,1.65-1.16,2.08l-0.36,0.21C181.89,84.78,181.62,84.86,181.35,84.86z"/>
		<path class="st15" d="M109.74,137.54c-0.19,0-0.81-0.08-0.81-1.11v-14.51c0-1,0.5-1.5,0.92-1.74l0.34-0.2
			c0.21-0.12,0.41-0.18,0.6-0.18c0.18,0,0.63,0.07,0.87,0.67l2.61,6.53c0.01-0.06,0.01-0.12,0.01-0.18v-7.99c0-1,0.5-1.5,0.92-1.74
			l0.19-0.11c0.21-0.12,0.4-0.18,0.58-0.18c0.19,0,0.81,0.08,0.81,1.13v14.51c0,0.98-0.5,1.47-0.92,1.71l-0.19,0.11
			c-0.21,0.12-0.41,0.18-0.61,0.18c-0.18,0-0.62-0.06-0.86-0.65l-2.77-6.85c-0.01,0.06-0.01,0.13-0.01,0.2v8.38
			c0,0.98-0.5,1.47-0.92,1.71l-0.19,0.11C110.11,137.48,109.92,137.54,109.74,137.54z M119.27,131.99c-0.23,0-0.46-0.08-0.64-0.22
			l-0.56-0.42c-0.35-0.27-0.53-0.7-0.53-1.3v-11.72c0-0.51,0.13-1.03,0.39-1.55l0.55-1.05c0.27-0.51,0.61-0.89,1.02-1.13l3.31-1.91
			c0.24-0.14,0.47-0.21,0.7-0.21c0.25,0,0.48,0.09,0.68,0.25l0.53,0.4c0.35,0.26,0.53,0.7,0.53,1.29v11.72
			c0,0.51-0.13,1.03-0.39,1.55l-0.55,1.05c-0.27,0.51-0.61,0.89-1.02,1.13l-3.29,1.9C119.74,131.92,119.5,131.99,119.27,131.99
			L119.27,131.99z M120.48,117.21c-0.19,0.11-0.44,0.32-0.44,0.89c0,0,0,10.46,0,10.48l2.25-1.3c0.19-0.11,0.44-0.32,0.44-0.89
			c0,0,0-10.46,0-10.48L120.48,117.21z M128.38,126.78c-0.24,0-0.81-0.11-0.81-1.13c0,0,0-12.5,0-12.53l-1.21,0.7
			c-0.21,0.12-0.41,0.18-0.59,0.18c-0.19,0-0.8-0.08-0.8-1.09v-0.25c0-1,0.5-1.49,0.92-1.74l5.38-3.11c0.21-0.12,0.4-0.18,0.58-0.18
			c0.19,0,0.81,0.08,0.81,1.13v0.25c0,0.76-0.32,1.34-0.92,1.69l-1.23,0.71c-0.19,0.11-0.44,0.32-0.44,0.91v12.42
			c0,1-0.5,1.49-0.92,1.74l-0.19,0.11C128.75,126.72,128.56,126.78,128.38,126.78L128.38,126.78z M136.26,122.23
			c-0.19,0-0.81-0.08-0.81-1.11v-14.49c0-0.98,0.5-1.47,0.92-1.71l5.36-3.1c0.21-0.12,0.4-0.18,0.59-0.18
			c0.19,0,0.81,0.08,0.81,1.11v0.25c0,0.98-0.5,1.47-0.92,1.71l-3.82,2.2c-0.19,0.11-0.44,0.32-0.44,0.89c0,0,0,3.92,0,3.94
			l3.78-2.18c0.21-0.12,0.4-0.18,0.59-0.18c0.19,0,0.81,0.08,0.81,1.11v0.25c0,0.98-0.5,1.47-0.92,1.71l-3.82,2.2
			c-0.21,0.12-0.44,0.33-0.44,0.89v4.68c0,0.98-0.5,1.47-0.92,1.71l-0.19,0.11C136.63,122.17,136.44,122.23,136.26,122.23z
			 M145.45,116.88c-0.23,0-0.46-0.08-0.64-0.22l-0.56-0.43c-0.35-0.26-0.53-0.7-0.53-1.29v-11.72c0-0.51,0.13-1.03,0.39-1.55
			l0.55-1.05c0.27-0.51,0.61-0.89,1.02-1.13l3.31-1.91c0.24-0.14,0.47-0.21,0.7-0.21c0.25,0,0.48,0.09,0.68,0.25l0.53,0.4
			c0.35,0.27,0.53,0.7,0.53,1.29v11.72c0,0.51-0.13,1.03-0.39,1.55l-0.55,1.05c-0.27,0.51-0.61,0.89-1.02,1.13l-3.29,1.9
			C145.92,116.81,145.67,116.88,145.45,116.88L145.45,116.88z M146.65,102.1c-0.21,0.12-0.44,0.33-0.44,0.89c0,0,0,10.46,0,10.48
			l2.25-1.3c0.19-0.11,0.44-0.32,0.44-0.89c0,0,0-10.46,0-10.49L146.65,102.1z M153.91,112c-0.25,0-0.48-0.09-0.68-0.25l-0.55-0.41
			c-0.35-0.27-0.53-0.7-0.53-1.3v-13.1c0-0.98,0.5-1.47,0.92-1.71l0.19-0.11c0.21-0.12,0.4-0.18,0.59-0.18
			c0.19,0,0.81,0.08,0.81,1.11c0,0,0,12.52,0,12.55l2.25-1.3c0.19-0.11,0.44-0.32,0.44-0.91V93.94c0-0.98,0.5-1.47,0.92-1.71
			l0.19-0.11c0.21-0.12,0.4-0.18,0.58-0.18c0.19,0,0.81,0.08,0.81,1.11v13.1c0,0.51-0.13,1.03-0.39,1.55l-0.55,1.05
			c-0.27,0.53-0.61,0.91-1.02,1.15l-3.29,1.9C154.37,111.93,154.14,112,153.91,112L153.91,112z M161.41,107.7
			c-0.19,0-0.81-0.08-0.81-1.11V92.08c0-1,0.5-1.49,0.92-1.74l0.34-0.2c0.21-0.12,0.41-0.18,0.6-0.18c0.23,0,0.64,0.09,0.87,0.67
			l2.62,6.53c0.01-0.05,0.01-0.11,0.01-0.18v-7.99c0-1,0.5-1.49,0.92-1.74l0.19-0.11c0.21-0.12,0.4-0.18,0.58-0.18
			c0.19,0,0.81,0.08,0.81,1.13v14.51c0,0.98-0.5,1.47-0.92,1.71l-0.19,0.11c-0.21,0.12-0.41,0.18-0.61,0.18c0,0,0,0,0,0
			c-0.18,0-0.62-0.06-0.86-0.65l-2.77-6.85c-0.01,0.06-0.01,0.13-0.01,0.2v8.38c0,0.98-0.5,1.47-0.92,1.71l-0.19,0.11
			C161.79,107.64,161.6,107.7,161.41,107.7z M170.02,102.74c-0.19,0-0.81-0.08-0.81-1.11V87.14c0-0.98,0.5-1.47,0.92-1.71l4.34-2.51
			c0.24-0.14,0.47-0.21,0.7-0.21c0.25,0,0.48,0.08,0.68,0.25l0.53,0.4c0.35,0.27,0.53,0.7,0.53,1.3v11.67
			c0,0.51-0.13,1.03-0.39,1.55l-0.55,1.05c-0.27,0.51-0.61,0.89-1.02,1.13l-4.34,2.51C170.39,102.68,170.2,102.74,170.02,102.74
			L170.02,102.74z M172.15,87.42c-0.21,0.12-0.44,0.33-0.44,0.89c0,0,0,10.41,0,10.44l2.25-1.3c0.19-0.11,0.44-0.32,0.44-0.89
			c0,0,0-10.41,0-10.44L172.15,87.42z M186.68,95.13c-0.24,0-0.66-0.09-0.89-0.73l-0.95-2.46c-0.1-0.25-0.19-0.6-0.25-1.05
			l-0.58-4.55c-0.03-0.33-0.04-0.53-0.04-0.61c0-0.11,0.01-0.32,0.04-0.62l0.58-5.26c0.06-0.49,0.14-0.92,0.24-1.27l0.95-3.57
			c0.18-0.65,0.52-1.12,1.01-1.4l0.34-0.2c0.21-0.12,0.41-0.19,0.59-0.19h0.09l0.17,0.05c0.17,0.07,0.46,0.26,0.46,0.8
			c0,0.2-0.03,0.4-0.09,0.6l-0.97,3.38c-0.11,0.37-0.18,0.76-0.22,1.15l-0.51,5.02c-0.02,0.26-0.03,0.44-0.03,0.54
			s0.01,0.27,0.03,0.51l0.51,4.39c0.04,0.32,0.11,0.6,0.2,0.82l0.97,2.26c0.07,0.17,0.11,0.37,0.11,0.58c0,0.28-0.07,0.55-0.21,0.8
			c-0.14,0.26-0.35,0.47-0.62,0.63l-0.34,0.2C187.06,95.07,186.86,95.13,186.68,95.13L186.68,95.13z M181.35,92.72
			c-0.19,0-0.8-0.08-0.8-1.07v-1.02c0-1.01,0.5-1.52,0.92-1.76l0.36-0.21c0.21-0.12,0.4-0.18,0.58-0.18c0.25,0,0.82,0.11,0.82,1.15
			v1.02c0,0.74-0.32,1.32-0.92,1.67l-0.36,0.21C181.73,92.66,181.53,92.72,181.35,92.72L181.35,92.72z M181.35,84.38
			c-0.19,0-0.8-0.08-0.8-1.07v-1.02c0-1.01,0.5-1.52,0.92-1.76l0.36-0.21c0.21-0.12,0.4-0.18,0.58-0.18c0.25,0,0.82,0.11,0.82,1.15
			v1.02c0,0.74-0.32,1.32-0.92,1.67l-0.36,0.21C181.73,84.32,181.53,84.38,181.35,84.38L181.35,84.38z"/>
		<g>
			<g>
				<path class="st4" d="M110.28,136.84l-0.19,0.11c-0.45,0.26-0.68,0.09-0.68-0.52v-14.51c0-0.62,0.23-1.06,0.68-1.32l0.34-0.2
					c0.37-0.22,0.64-0.13,0.78,0.25l2.74,6.84c0.06,0.13,0.13,0.22,0.21,0.27c0.09,0.05,0.17,0.05,0.25,0
					c0.1-0.06,0.18-0.17,0.25-0.33c0.06-0.16,0.09-0.36,0.09-0.61v-7.99c0-0.62,0.23-1.06,0.68-1.33l0.19-0.11
					c0.45-0.26,0.68-0.08,0.68,0.54v14.51c0,0.61-0.23,1.04-0.68,1.3l-0.19,0.11c-0.37,0.22-0.64,0.14-0.78-0.23l-2.9-7.16
					c-0.11-0.31-0.26-0.41-0.44-0.3c-0.1,0.06-0.19,0.18-0.26,0.36c-0.07,0.18-0.1,0.39-0.1,0.63v8.38
					C110.96,136.14,110.73,136.57,110.28,136.84z"/>
				<path class="st4" d="M124.41,127.49l-0.54,1.04c-0.23,0.43-0.51,0.75-0.83,0.94l-3.29,1.9c-0.33,0.19-0.61,0.2-0.83,0.03
					l-0.56-0.43c-0.23-0.17-0.34-0.48-0.34-0.92v-11.72c0-0.44,0.11-0.88,0.34-1.33l0.54-1.04c0.23-0.43,0.51-0.75,0.83-0.94
					l3.31-1.91c0.33-0.19,0.61-0.19,0.83,0l0.54,0.41c0.23,0.17,0.34,0.48,0.34,0.92v11.72
					C124.75,126.6,124.64,127.04,124.41,127.49z M123.2,126.4V116c0-0.61-0.23-0.78-0.68-0.52l-2.28,1.32
					c-0.45,0.26-0.68,0.7-0.68,1.3v10.4c0,0.61,0.23,0.78,0.68,0.52l2.28-1.32C122.98,127.44,123.2,127,123.2,126.4z"/>
				<path class="st4" d="M126.11,111.34l5.38-3.11c0.45-0.26,0.68-0.08,0.68,0.54v0.25c0,0.59-0.23,1.02-0.68,1.28l-1.23,0.71
					c-0.45,0.26-0.68,0.7-0.68,1.32v12.42c0,0.62-0.23,1.06-0.68,1.32l-0.19,0.11c-0.45,0.26-0.68,0.08-0.68-0.54v-12.42
					c0-0.62-0.23-0.8-0.68-0.54l-1.24,0.72c-0.45,0.26-0.68,0.1-0.68-0.49v-0.25C125.43,112.04,125.66,111.6,126.11,111.34z"/>
				<path class="st4" d="M136.61,105.33l5.36-3.1c0.45-0.26,0.68-0.09,0.68,0.52v0.25c0,0.61-0.23,1.04-0.68,1.3l-3.82,2.2
					c-0.45,0.26-0.68,0.7-0.68,1.3v3.86c0,0.61,0.23,0.78,0.68,0.52l3.82-2.2c0.45-0.26,0.68-0.09,0.68,0.52v0.25
					c0,0.61-0.23,1.04-0.68,1.3l-3.82,2.2c-0.45,0.26-0.68,0.7-0.68,1.3v4.68c0,0.61-0.23,1.04-0.68,1.3l-0.19,0.11
					c-0.45,0.26-0.68,0.09-0.68-0.52v-14.49C135.93,106.02,136.15,105.59,136.61,105.33z"/>
				<path class="st4" d="M150.59,112.38l-0.54,1.04c-0.23,0.43-0.51,0.75-0.83,0.94l-3.29,1.9c-0.33,0.19-0.61,0.2-0.83,0.03
					l-0.56-0.43c-0.23-0.17-0.34-0.48-0.34-0.92v-11.72c0-0.44,0.11-0.88,0.34-1.33l0.54-1.04c0.23-0.43,0.51-0.75,0.83-0.94
					l3.31-1.91c0.33-0.19,0.61-0.19,0.83,0l0.54,0.41c0.23,0.17,0.34,0.48,0.34,0.92v11.72
					C150.93,111.49,150.82,111.93,150.59,112.38z M149.38,111.28v-10.4c0-0.61-0.23-0.78-0.68-0.52l-2.28,1.32
					c-0.45,0.26-0.68,0.7-0.68,1.3v10.4c0,0.61,0.23,0.78,0.68,0.52l2.28-1.32C149.15,112.32,149.38,111.89,149.38,111.28z"/>
				<path class="st4" d="M158.51,92.63l0.19-0.11c0.45-0.26,0.68-0.09,0.68,0.52v13.1c0,0.44-0.11,0.88-0.34,1.33l-0.54,1.04
					c-0.23,0.45-0.51,0.77-0.83,0.96l-3.29,1.9c-0.33,0.19-0.61,0.19-0.83,0l-0.56-0.43c-0.23-0.17-0.34-0.48-0.34-0.92v-13.1
					c0-0.61,0.23-1.04,0.68-1.3l0.19-0.11c0.45-0.26,0.68-0.09,0.68,0.52v12.44c0,0.62,0.23,0.8,0.68,0.54l2.28-1.32
					c0.45-0.26,0.68-0.7,0.68-1.32V93.94C157.83,93.33,158.06,92.9,158.51,92.63z"/>
				<path class="st4" d="M161.95,107l-0.19,0.11c-0.45,0.26-0.68,0.09-0.68-0.52V92.08c0-0.62,0.23-1.06,0.68-1.32l0.34-0.2
					c0.37-0.22,0.64-0.13,0.78,0.25l2.74,6.84c0.06,0.13,0.13,0.22,0.21,0.27c0.09,0.05,0.17,0.05,0.25,0
					c0.1-0.06,0.18-0.17,0.25-0.33c0.06-0.16,0.09-0.36,0.09-0.61v-7.99c0-0.62,0.23-1.06,0.68-1.32l0.19-0.11
					c0.45-0.26,0.68-0.08,0.68,0.54v14.51c0,0.61-0.23,1.04-0.68,1.3l-0.19,0.11c-0.37,0.22-0.64,0.14-0.78-0.23l-2.9-7.16
					c-0.11-0.31-0.26-0.41-0.44-0.3c-0.1,0.06-0.19,0.18-0.26,0.36c-0.07,0.18-0.1,0.39-0.1,0.63v8.38
					C162.63,106.3,162.41,106.74,161.95,107z"/>
				<path class="st4" d="M176.09,97.66l-0.55,1.04c-0.23,0.43-0.51,0.75-0.83,0.94l-4.34,2.51c-0.45,0.26-0.68,0.09-0.68-0.52V87.14
					c0-0.61,0.23-1.04,0.68-1.3l4.34-2.51c0.33-0.19,0.61-0.19,0.83,0l0.55,0.41c0.23,0.17,0.34,0.48,0.34,0.92v11.67
					C176.43,96.76,176.32,97.21,176.09,97.66z M171.92,99.18l2.28-1.32c0.45-0.26,0.68-0.7,0.68-1.3V86.21
					c0-0.61-0.23-0.78-0.68-0.52l-2.28,1.32c-0.45,0.26-0.68,0.7-0.68,1.3v10.36C171.23,99.27,171.46,99.44,171.92,99.18z"/>
				<path class="st4" d="M182.07,83.58l-0.36,0.21c-0.45,0.26-0.68,0.11-0.68-0.47v-1.02c0-0.64,0.23-1.08,0.68-1.35l0.36-0.21
					c0.45-0.26,0.68-0.08,0.68,0.56v1.02C182.75,82.9,182.52,83.32,182.07,83.58z M182.07,91.91l-0.36,0.21
					c-0.45,0.26-0.68,0.11-0.68-0.47v-1.02c0-0.64,0.23-1.08,0.68-1.35l0.36-0.21c0.45-0.26,0.68-0.08,0.68,0.56v1.02
					C182.75,91.23,182.52,91.65,182.07,91.91z"/>
				<path class="st4" d="M187.96,93.32c0,0.2-0.05,0.39-0.15,0.58c-0.1,0.19-0.25,0.34-0.44,0.45l-0.34,0.2
					c-0.37,0.22-0.64,0.12-0.78-0.3l-0.95-2.47c-0.09-0.22-0.16-0.53-0.22-0.94l-0.58-4.55c-0.02-0.29-0.03-0.47-0.03-0.55
					c0-0.1,0.01-0.3,0.03-0.59l0.58-5.24c0.06-0.47,0.13-0.87,0.22-1.19l0.95-3.57c0.15-0.52,0.41-0.89,0.78-1.11l0.34-0.2
					c0.19-0.11,0.34-0.15,0.44-0.11c0.1,0.04,0.15,0.16,0.15,0.35c0,0.15-0.02,0.31-0.07,0.47l-0.97,3.38
					c-0.11,0.4-0.19,0.81-0.24,1.23l-0.51,5.02c-0.02,0.29-0.03,0.48-0.03,0.59c0,0.11,0.01,0.29,0.03,0.55l0.51,4.41
					c0.05,0.37,0.12,0.68,0.24,0.95l0.97,2.26C187.94,93.04,187.96,93.17,187.96,93.32z"/>
			</g>
			<path class="st16" d="M141.97,102.23l-5.37,3.1c-0.45,0.26-0.68,0.7-0.68,1.3v14.49c0,0.61,0.23,0.78,0.68,0.52l0.19-0.11
				c0.45-0.26,0.68-0.7,0.68-1.3v-4.68c0-0.61,0.23-1.04,0.68-1.3l3.82-2.2c0.45-0.26,0.68-0.7,0.68-1.3v-0.25
				c0-0.61-0.23-0.78-0.68-0.52l-3.82,2.2c-0.45,0.26-0.68,0.09-0.68-0.52v-3.86c0-0.61,0.23-1.04,0.68-1.3l3.82-2.2
				c0.45-0.26,0.68-0.7,0.68-1.3v-0.25C142.65,102.14,142.43,101.97,141.97,102.23z M115.62,117.4l-0.19,0.11
				c-0.45,0.26-0.68,0.7-0.68,1.33v7.99c0,0.24-0.03,0.44-0.09,0.61c-0.06,0.16-0.14,0.27-0.25,0.33c-0.08,0.05-0.16,0.05-0.25,0
				c-0.09-0.05-0.16-0.14-0.21-0.27l-2.74-6.84c-0.15-0.38-0.41-0.47-0.78-0.25l-0.34,0.2c-0.45,0.26-0.68,0.7-0.68,1.32v14.51
				c0,0.61,0.23,0.78,0.68,0.52l0.19-0.11c0.45-0.26,0.68-0.7,0.68-1.3v-8.38c0-0.24,0.03-0.45,0.1-0.63
				c0.07-0.18,0.15-0.3,0.26-0.36c0.18-0.1,0.33,0,0.44,0.3l2.9,7.16c0.15,0.37,0.41,0.45,0.78,0.23l0.19-0.11
				c0.45-0.26,0.68-0.7,0.68-1.3v-14.51C116.31,117.31,116.08,117.13,115.62,117.4z M150.05,98c-0.23-0.19-0.51-0.19-0.83,0
				l-3.31,1.91c-0.33,0.19-0.61,0.5-0.83,0.94l-0.54,1.04c-0.23,0.45-0.34,0.89-0.34,1.33v11.72c0,0.44,0.11,0.74,0.34,0.92
				l0.56,0.43c0.23,0.17,0.51,0.16,0.83-0.03l3.29-1.9c0.33-0.19,0.61-0.5,0.83-0.94l0.54-1.04c0.23-0.45,0.34-0.89,0.34-1.33V99.33
				c0-0.44-0.11-0.74-0.34-0.92L150.05,98z M149.38,111.28c0,0.61-0.23,1.04-0.68,1.3l-2.28,1.32c-0.45,0.26-0.68,0.09-0.68-0.52
				v-10.4c0-0.61,0.23-1.04,0.68-1.3l2.28-1.32c0.45-0.26,0.68-0.09,0.68,0.52V111.28z M123.87,113.11c-0.23-0.19-0.51-0.19-0.83,0
				l-3.31,1.91c-0.33,0.19-0.61,0.5-0.83,0.94l-0.54,1.04c-0.23,0.45-0.34,0.89-0.34,1.33v11.72c0,0.44,0.11,0.74,0.34,0.92
				l0.56,0.43c0.23,0.17,0.5,0.16,0.83-0.03l3.29-1.9c0.33-0.19,0.61-0.5,0.83-0.94l0.54-1.04c0.23-0.45,0.34-0.89,0.34-1.33v-11.72
				c0-0.44-0.11-0.74-0.34-0.92L123.87,113.11z M123.2,126.4c0,0.61-0.23,1.04-0.68,1.3l-2.28,1.32c-0.45,0.26-0.68,0.09-0.68-0.52
				v-10.4c0-0.61,0.23-1.04,0.68-1.3l2.28-1.32c0.45-0.26,0.68-0.09,0.68,0.52V126.4z M131.5,108.23l-5.38,3.11
				c-0.45,0.26-0.68,0.7-0.68,1.32v0.25c0,0.59,0.23,0.75,0.68,0.49l1.24-0.72c0.45-0.26,0.68-0.08,0.68,0.54v12.42
				c0,0.62,0.23,0.8,0.68,0.54l0.19-0.11c0.45-0.26,0.68-0.7,0.68-1.32v-12.42c0-0.62,0.23-1.06,0.68-1.32l1.23-0.71
				c0.45-0.26,0.68-0.69,0.68-1.28v-0.25C132.18,108.15,131.95,107.97,131.5,108.23z M158.7,92.53l-0.19,0.11
				c-0.45,0.26-0.68,0.7-0.68,1.3v12.45c0,0.62-0.23,1.06-0.68,1.32l-2.28,1.32c-0.45,0.26-0.68,0.08-0.68-0.54V96.04
				c0-0.61-0.23-0.78-0.68-0.52l-0.19,0.11c-0.45,0.26-0.68,0.7-0.68,1.3v13.1c0,0.44,0.11,0.74,0.34,0.92l0.56,0.43
				c0.23,0.19,0.51,0.19,0.83,0l3.29-1.9c0.33-0.19,0.61-0.51,0.83-0.96l0.54-1.04c0.23-0.45,0.34-0.89,0.34-1.33v-13.1
				C159.38,92.44,159.15,92.26,158.7,92.53z M182.07,89.07l-0.36,0.21c-0.45,0.26-0.68,0.71-0.68,1.35v1.02
				c0,0.58,0.23,0.73,0.68,0.47l0.36-0.21c0.45-0.26,0.68-0.68,0.68-1.26v-1.02C182.75,89,182.52,88.81,182.07,89.07z M186.92,90.68
				c-0.11-0.27-0.19-0.58-0.24-0.95l-0.51-4.41c-0.02-0.26-0.03-0.44-0.03-0.55c0-0.1,0.01-0.3,0.03-0.59l0.51-5.02
				c0.05-0.42,0.12-0.83,0.24-1.23l0.97-3.38c0.05-0.16,0.07-0.32,0.07-0.47c0-0.2-0.05-0.31-0.15-0.35c-0.1-0.04-0.25,0-0.44,0.11
				l-0.34,0.2c-0.38,0.22-0.64,0.59-0.78,1.11l-0.95,3.57c-0.09,0.32-0.16,0.72-0.22,1.19l-0.58,5.24
				c-0.02,0.29-0.03,0.48-0.03,0.59c0,0.08,0.01,0.26,0.03,0.55l0.58,4.55c0.06,0.41,0.13,0.72,0.22,0.94l0.95,2.47
				c0.15,0.41,0.41,0.51,0.78,0.3l0.34-0.2c0.19-0.11,0.34-0.26,0.44-0.45c0.1-0.19,0.15-0.38,0.15-0.58c0-0.15-0.02-0.28-0.07-0.39
				L186.92,90.68z M182.07,80.74l-0.36,0.21c-0.45,0.26-0.68,0.71-0.68,1.35v1.02c0,0.58,0.23,0.73,0.68,0.47l0.36-0.21
				c0.45-0.26,0.68-0.68,0.68-1.26V81.3C182.75,80.66,182.52,80.48,182.07,80.74z M167.3,87.56l-0.19,0.11
				c-0.45,0.26-0.68,0.7-0.68,1.32v7.99c0,0.24-0.03,0.45-0.09,0.61c-0.06,0.16-0.15,0.27-0.25,0.33c-0.08,0.05-0.16,0.05-0.25,0
				c-0.09-0.05-0.16-0.14-0.21-0.27l-2.74-6.84c-0.15-0.38-0.41-0.47-0.78-0.25l-0.34,0.2c-0.45,0.26-0.68,0.7-0.68,1.32v14.51
				c0,0.61,0.23,0.78,0.68,0.52l0.19-0.11c0.45-0.26,0.68-0.7,0.68-1.3v-8.38c0-0.24,0.03-0.45,0.1-0.63
				c0.07-0.18,0.15-0.3,0.26-0.36c0.18-0.1,0.33,0,0.44,0.3l2.9,7.16c0.15,0.37,0.41,0.44,0.78,0.23l0.19-0.11
				c0.45-0.26,0.68-0.7,0.68-1.3V88.1C167.98,87.48,167.75,87.3,167.3,87.56z M175.54,83.32c-0.23-0.19-0.51-0.19-0.83,0l-4.34,2.51
				c-0.45,0.26-0.68,0.7-0.68,1.3v14.49c0,0.61,0.23,0.78,0.68,0.52l4.34-2.51c0.33-0.19,0.61-0.5,0.83-0.94l0.55-1.04
				c0.23-0.45,0.34-0.89,0.34-1.33V84.65c0-0.44-0.11-0.74-0.34-0.92L175.54,83.32z M174.88,96.56c0,0.61-0.23,1.04-0.68,1.3
				l-2.28,1.32c-0.45,0.26-0.68,0.09-0.68-0.52V88.31c0-0.61,0.23-1.04,0.68-1.3l2.28-1.32c0.45-0.26,0.68-0.09,0.68,0.52V96.56z"/>
		</g>
	</g>
</g>
<g id="Character">
	<path id="Shadow_00000090273945542181831840000003344557949687340427_" class="st1" d="M336.76,378.62
		c-4.83-2.07-8.31-3.13-12.55-3.75c-2.22-0.33-4.95-0.53-7.97,0.07c-2.06,0.41-3.92,1.13-5.42,1.88c-5.87,2.92-6.72,6.17-6.92,8.92
		c-0.2,2.82,1.33,6.42,6.19,9.83c3.39,2.38,53.41,37.44,83.38,58.44c15.86-8.54,29.97-18.52,42.03-29.64
		C399.24,407.52,340.1,380.05,336.76,378.62z"/>
	<g id="Character_12_">
		<g id="Arm_00000108283298793585038300000000780329028720459411_">
			<path id="Arm_1_" class="st17" d="M363.45,255.65c5.12,1,7.12,1.35,9.57,5.59c2.45,4.24,6.61,20.01,7.75,23.27
				c1.14,3.26,1.48,4.46,1.01,8.1c-0.49,3.8-2.73,10.55-3.67,14.25c-0.43,1.71-0.73,3.38-1.04,5.13c-0.33,1.83-1.12,3.5-1.7,5.26
				c-0.27,0.82-0.84,1.58-1.49,2.14c-0.43,0.37-1,0.41-1.41,0.75c-0.42,0.36-0.5,0.94-1.07,1.22c-0.63,0.31-1.34,0.12-1.89,0.44
				c-0.57,0.34-1.05,0.83-1.69,1.1c-0.57,0.25-1,0.35-1.43,0.83c-0.36,0.39-0.7,1.27-1.35,1.2c-0.72-0.07-0.84-0.77-0.88-1.37
				c-0.07-1.06,0.51-2.41,1.15-3.25c0.74-0.97,1.24-2.11,2.08-2.99c0.77-0.8,1.21-1.99,1.54-3.05c0.23-0.75,0.16-1.7-0.81-1.26
				c-1.13,0.51-2.34,1.6-3.7,1.36c-0.94-0.16-0.99-0.9-0.44-1.52c0.92-1.04,1.71-2.08,2.47-3.25c0.76-1.16,1.39-2.4,2.18-3.54
				c0.41-0.59,0.9-1.16,1.39-1.69c1.37-1.5,1.32-3.55,1.48-5.46c0.22-2.66,0.41-9.46,0.41-9.46c0,0-6.2-15.27-6.2-15.27
				L363.45,255.65z"/>
			<g id="Arm_00000065780237215682817140000002573543300147805587_">
				<path class="st18" d="M371.52,298.89c0.06-3.16,0.19-6.31,0.31-9.46c-2.04-4.86-4.14-10.21-6.09-15.27
					c2.16,5.06,4.27,10.14,6.3,15.25C371.87,292.58,371.73,295.74,371.52,298.89L371.52,298.89z"/>
			</g>
		</g>
		<g id="Bottom_13_">
			<g>
				<path class="st1" d="M328.88,374.24c1.76-0.62,3.06-0.68,3.05,0.19c-0.02,0.87-1.13,3.08-1.13,3.08l-1.4,1.92l-0.67,1.91
					c0,0-0.82,1.02-0.87,1.09c-0.05,0.07-0.32-3.54-0.32-3.54S326.55,374.69,328.88,374.24z"/>
			</g>
			<g>
				<path id="XMLID_4872_" class="st1" d="M347.78,299.99c0,0-3.97,4.76-6.37,13.66c-2.91,10.8-4.04,19.11-4.95,25.14
					c-0.57,3.79-1.49,8.58-2.85,16.05c-1.04,5.72-4.35,23.27-4.35,23.27s1.9,3.15,4.2,4.11c3.3,1.38,6.49,0.75,6.9-2.2
					c0,0,2.18-3.48,5.49-12.46c2.08-5.65,3.23-9.73,3.81-12.68c0.43-2.22,0.33-6.18,0.29-8.17l13.29-23.09
					c1.46-2.53,3.24-4.84,5.24-6.97c1.07-1.14,2.23-2.67,2.87-4.43c2.2-6.02-1-14.08-1-14.08L347.78,299.99z"/>
				<g id="XMLID_00000026155607456693727840000016493160456887105455_">
					<path class="st18" d="M336.46,338.79c-2.14,13.15-4.59,26.25-7.2,39.32C331.56,364.98,334.02,351.89,336.46,338.79
						L336.46,338.79z"/>
				</g>
				<g>
					<path d="M331.28,388.21l-0.72-0.14c0.05-0.28,5.37-27.65,9.1-39.15c3.72-11.49,13.47-34.35,13.57-34.57l0.67,0.29
						c-0.1,0.23-9.83,23.05-13.54,34.51C336.65,360.6,331.34,387.94,331.28,388.21z"/>
				</g>
				<path d="M365.26,307.69h-21.81c-0.72,1.71-1.43,3.7-2.04,5.96c-2.61,9.66-3.78,17.32-4.65,23.15c0.53,3.57,1.13,7.23,1.69,9.76
					c1.47,6.65,2.38,11.35,3.54,14.1c1.16,2.74,3.94,6.63,3.95,6.65c2.02-5.51,3.14-9.52,3.71-12.42c0.43-2.22,0.33-6.18,0.29-8.17
					l12.97-22.55v0l0.93-3.55C367.14,315.24,366.77,311.21,365.26,307.69z"/>
			</g>
			<g>
				<path class="st0" d="M311.04,383.11c-0.39-0.18-0.87,1.35-0.91,1.9c-0.04,0.55,1.01,2.79,3.73,4.43
					c2.72,1.64,7.42,2.57,9.18,3.13c1.76,0.56,3.17,1.96,5.48,3.13c2.06,1.04,5.17,1.53,6.53,0.92c0.67-0.3,0.84-0.98,0.99-1.46
					c0.37-1.13,0.34-1.39,0.21-1.43L311.04,383.11z"/>
				<path id="XMLID_3987_" class="st7" d="M337.19,391.23c-0.18,1.17-0.56,2.23-1.13,3.29c-0.66,0.7-1.94,0.76-2.81,0.71
					c-2.28-0.13-3.8-0.81-5.91-2.07c-1.26-0.75-2.64-1.57-4.31-2.07c-1.83-0.55-4.41-1.13-6.13-1.95c-1.47-0.7-2.91-1.41-4.1-2.52
					c-1.01-0.94-1.93-2.01-1.83-3.31c0.7-2.2,2.21-2.83,3.7-3.07c1.57-0.25,3.28,0.32,4.83,0.73c1.92,0.5,2.58,0.86,4.63,1.02
					c1.08,0.08,2.35,0.98,3.19,0.05c0.99-1.1,1.39-3.7,2.06-4.99c0.11-0.21,0.25-0.44,0.48-0.49c0.33-0.08,0.62,0.24,0.82,0.51
					c0.99,1.29,2.2,2.12,3.65,2.84c3.87,1.91,5.65,0.9,5.65,0.9l0.36-0.8c0,0,0.77,0.43-0.21,2.23c-0.87,1.6-1.25,2.36-2.08,4.63
					C337.32,388.94,337.37,390.07,337.19,391.23z"/>
				<g id="XMLID_00000010308874763146646750000017467660613227984811_">
					<path class="st18" d="M310.97,383.32c1.21-4.48,6.29-3.28,9.57-2.15c1.17,0.39,2.35,0.71,3.59,0.83
						c-1.24-0.03-2.46-0.3-3.64-0.65C317.25,380.36,312.38,379.07,310.97,383.32L310.97,383.32z"/>
				</g>
				<path class="st7" d="M320.22,381.18c-1.65,0.16-2.1,2.83-2.1,2.83s2.47,1.36,4.75,1.54c2.91,0.24,4.66-1.19,5.35-3.42
					c0.69-2.22,0.05-5.35-0.07-6.35c-0.09-0.77,0.21-1.39,0.98-1.62c-1.55,0.41-1.91,1.21-1.85,2.4c0.06,1.19,0.02,3.57-0.51,4.36
					C326.24,381.7,323.73,382.05,320.22,381.18z"/>
			</g>
			<g>
				<path id="XMLID_4871_" class="st1" d="M361.56,299.99c1.04,1.06,3.62,4.62,4.04,10.1c0.18,2.32-0.48,6.69-3.19,9.98
					c-0.83,12.15-3.23,35.56-3.23,35.56c3.21,3.31,4.04,5.44,5.9,11.37c1.13,3.6,5.37,15.17,6.42,18.39
					c-5.63,0.69-8.69,6.28-8.69,6.28s-9.89-14.62-14.66-23.22c-3.52-6.36-5.16-8.68-6.21-12.44c-1.3-4.69-1.65-7.11-2.81-15.02
					c-1.16-7.91-2.27-17.93-2.84-25.71c-0.57-7.79-1.02-16.04-1.02-16.04L361.56,299.99z"/>
			</g>
			<g id="XMLID_00000054231477142094196710000005911705229859156646_">
				<path class="st18" d="M362.82,391.67c-5.77-8.5-11.42-17.1-16.39-26.1c-1.5-2.69-3.17-5.32-4.19-8.25
					c-0.95-2.94-1.61-5.97-2.12-9.01c-2.68-16.24-4.04-32.64-4.84-49.07c0,0,0.84,12.3,0.84,12.3c0.76,12.31,2.29,24.56,4.24,36.72
					c0.71,4.02,1.45,8.13,3.27,11.81C349.36,370.99,355.99,381.41,362.82,391.67L362.82,391.67z"/>
			</g>
			<path d="M348.83,359.46c-2.91-7.43-6.4-47.81-6.22-61.77l-0.73-0.01c-0.06,4.66,0.29,12.28,0.9,20.63
				c-2.38-1.2-3.9-3.4-3.9-14.46h-0.73c0,11.12,1.45,13.81,4.69,15.3c1.22,16.54,3.39,35.67,5.32,40.58
				c2.85,7.26,17.71,31.79,17.86,32.04l0.62-0.38C366.49,391.14,351.65,366.67,348.83,359.46z"/>
			<g id="Bottom_00000026856411725342981420000012463785844157813934_">
				<g>
					<path class="st7" d="M361.99,390.43c-0.89,1.26-1.9,2.16,0.64,3.83c1.95,1.29,2.07,2.33,2.68,3.71
						c0.61,1.37,0.48,4.15,0.48,4.15s3.35-5.07,2.37-8.34C367.18,390.52,361.99,390.43,361.99,390.43z"/>
					<path class="st7" d="M372.77,387.53c0.63,0.91,2.08,1.69,3.29,2.44c0.85,0.53,1.73,1.04,1.98,2.01
						c0.03,0.11-0.5,0.71-0.49,0.82c0.06,0.47,0,0.96-0.05,1.43c-0.19,1.65-1.09,2.86-1.29,4.51c-0.08,0.67-0.17,1.29-0.36,1.94
						c-0.21,0.72-0.14,1.6-0.19,2.35c-0.05,0.82-0.11,1.64-0.15,2.46c-0.02,0.32-0.11,0.73-0.04,1.05c0.07,0.34-5.51,3.16-7.76,4.24
						c-0.13,0.06-0.26,0.11-0.41,0.17c-2.04,0.69-4.11-0.4-4.11-0.4c-4.48-1.63-4.21-3.25-4.21-3.25s-0.14-1.87,2.13-3.14
						c0.29-0.16,0.57-0.29,0.86-0.39c0.02-0.01,0.03-0.01,0.04-0.02c1.9-0.69,3.49-0.18,3.49-0.18s0.25-0.5,0.31-2.07
						c0.06-1.49,0.14-1.67,0.05-3.16c-0.05-0.94-0.8-2.55-1.35-3.31c-0.95-1.32-1.98-2.98-2.63-3.92c-0.72-0.82-0.8-3.14,2.93-5.81
						c3.58-2.56,6.2-2.02,6.71-0.96C371.53,384.35,372.14,386.6,372.77,387.53z"/>
					<g>
						<path class="st18" d="M359,407.3c-0.04-3.09,3.94-4.63,6.52-3.73C362.88,403.08,359.38,404.3,359,407.3L359,407.3z"/>
					</g>
					<path class="st19" d="M363.14,405.2c0.32-0.76,0.59-1.11,1.58-1.77c0.48,0.05,0.79,0.15,0.79,0.15
						C365.06,404.01,363.45,404.64,363.14,405.2z"/>
					<g>
						<path id="XMLID_3985_" d="M378.58,392.94c1,0.42,0.17,2.04-1.03,4.45c-1.2,2.4-1.43,3.82-1.19,6
							c0.24,2.17-0.27,3.24-1.22,3.99c-0.94,0.76-7.92,3.82-7.92,3.82s2.37-2.54,2.75-7.33c0.38-4.78,0.84-7.86,3.22-9.94
							C375.57,391.85,378.58,392.94,378.58,392.94z"/>
					</g>
					<path id="XMLID_3976_" class="st0" d="M359,407.29c0.11,0.93,2.78,2.83,5.93,2.8c3.25-0.03,3.42-0.71,3.91-4.4
						c0.49-3.69,0.83-8.82,2.42-11.01c1.6-2.2,3.7-3.5,6.77-2.69c0.35,0.17,1.3,1.12,0.95,2.01c0,0,0.01-0.7-1.25-1.07
						c-1.08-0.31-2.37-0.28-4.17,1.27c-2.1,1.82-2.58,6.08-2.82,9.74c-0.24,3.66-1.38,7.18-4.41,7.5c-3.03,0.32-5.37-0.57-7.3-2.26
						C358.71,408.19,359,407.29,359,407.29z"/>
				</g>
			</g>
		</g>
		<g id="Top_11_">
			<g id="XMLID_3969_">
				<path id="XMLID_3974_" class="st1" d="M340.94,232.69c-0.91-1.05-0.91-2.72-0.4-4.02c0.51-1.3,1.57-2.67,4.66-4.27
					c3.68-1.9,13.78-3.25,18.78,3.36c0.72,0.95-9.22,19.64-8.73,23.52c-2.58-2.71-11.09-12.25-11.09-12.25
					c-2.02-0.86-3.24-1.59-3.66-3.49C340.37,234.99,340.4,233.61,340.94,232.69z"/>
				<g id="XMLID_00000061442967885774605090000014178806611019466915_">
					<path class="st18" d="M344.16,239.03c-2.98-0.79-4.9-3.41-3.21-6.34C339.66,235.73,341.37,237.87,344.16,239.03L344.16,239.03z
						"/>
				</g>
				<g id="XMLID_00000041255590060340362060000016402595715753099664_">
					<path class="st18" d="M340.94,232.69c-1.26-1.38-0.96-3.6,0-5.08c1.04-1.52,2.65-2.47,4.26-3.21
						c-0.77,0.45-1.52,0.93-2.22,1.47C340.89,227.31,339.33,230.36,340.94,232.69L340.94,232.69z"/>
				</g>
				<g id="XMLID_3971_">
					<path id="XMLID_3973_" class="st20" d="M342.46,237.97c0,0-2.72,4.45-2.42,4.81c0.3,0.36,2.02,1.33,2.02,1.33L342.46,237.97z"
						/>
					<g id="XMLID_00000093898848626433132580000017702784960894400128_">
						<path class="st18" d="M342.46,237.97c-0.68,1.43-1.49,2.78-2.17,4.2c-0.08,0.23-0.27,0.5-0.14,0.66
							c0.15,0.2,0.37,0.35,0.6,0.49c-0.27-0.15-0.72-0.26-0.78-0.63C340.38,240.97,341.47,239.44,342.46,237.97L342.46,237.97z"/>
					</g>
					<path id="XMLID_3972_" class="st17" d="M345.84,229.86c-1.83,0.86-3.41,2.26-3.98,6.28c-0.15,1.05,0.67,2.48,0.3,3.88
						c-1.59,5.97,0.3,10.95,1.46,12.05c0.78,0.74,4.88,1.07,7.04,0.47c2.69-0.75,8.54-3.39,11.33-7.6
						c3.28-4.95,4.05-11.61,0.39-14.28C357.23,226.9,347.79,228.94,345.84,229.86z"/>
					<g id="XMLID_00000033343621691238503270000011771594436244459960_">
						<path class="st18" d="M341.86,236.14c-0.04,1.37,0.79,2.7,0.33,4.08c-0.85,3.87-0.91,8.47,1.42,11.84
							c-2.56-3.26-2.56-8.01-1.58-11.88C342.5,238.86,341.74,237.51,341.86,236.14L341.86,236.14z"/>
					</g>
					<path class="st17" d="M359.83,247.76l1.07,7.37l0,0c1.64,0.35,1.8,2.3,0.98,3.78l0.38,2.07l-11.25,2.06l-1.26-10.31
						L359.83,247.76z"/>
					<path class="st20" d="M343.84,252.21c0.95,0.53,3.06,0.92,5.91,0.52l-0.17-1.46c0,0-1.21,0.48-2.79,0.8
						C345.23,252.39,343.85,252.21,343.84,252.21z"/>
				</g>
				<g>
					<path id="XMLID_3970_" class="st1" d="M343.14,232c-0.1,2.6,1.53,3.42,2.69,3.93c-0.42,0.75-0.64,2.23-0.48,3.06
						c0.26,1.32,0.76,2.4,2.06,2.83c0.79,0.27,1.03-0.08,1.31-0.71c0.4-0.89,0.91-2.26,2.82-1.99c2.19,0.3,2.77,3.6,1.49,5.76
						c-0.56,0.95-1.5,1.61-2.47,1.66c-0.87,0.05-1.49-0.7-1.49-0.7s0.14,2.88,3.85,4.59c0,0,3.74,2.1,7.57,0.97
						c1.43-1.71,3.13-3.48,4.87-6c4.04-5.84,4.85-16.53-2.04-18.45c-0.33-0.09-6.56-0.96-9.6-0.3
						C344.39,228.68,343.16,231.55,343.14,232z"/>
				</g>
				<path class="st4" d="M360.05,226.23c-0.81,0.6-1.43,1.49-1.59,2.48c-0.16,1,0.19,2.09,0.99,2.71c2.02,1.57,5.12-0.25,5.49-2.57
					C365.37,226.11,362.07,224.73,360.05,226.23z"/>
				<path class="st1" d="M361.68,227.1c-2.05,1.26-3.33,4.22-2.23,6.36c0.3,0.58,0.72,1.1,0.97,1.71c0.79,1.95-0.36,4.1-0.61,6.19
					c-0.16,1.35,0.11,3.67,0.83,4.85c0.68,1.1,2.18,1.38,2.78,2.55c0.41,0.8,0.13,1.78,0.29,2.66c0.35,1.92,2.61,2.84,4.55,2.88
					c1.65,0.04,3.44-0.38,4.5-1.65c0.54-0.64,0.86-1.45,1.46-2.02c1.16-1.09,3.03-1.03,4.28-2.02c0.99-0.78,1.41-2.12,1.37-3.38
					c-0.04-1.26-0.48-2.47-0.96-3.64c-0.83-2.03-0.17-3.29,0.26-5.32c0.45-2.18-0.85-4.58-2.92-5.4c-1.42-0.56-3.14-0.46-4.27-1.48
					c-0.62-0.55-0.96-1.35-1.52-1.96C368.31,225.11,364.09,225.63,361.68,227.1z"/>
			</g>
			<g id="XMLID_3967_">
				<path id="XMLID_3968_" class="st4" d="M369.73,261.16c-1.01-3.28-4.34-5.02-5.36-5.31c-1.02-0.29-3.48-0.72-3.48-0.72
					c0.57,1.3-0.39,2.16-2.08,2.55c-2.17,0.51-5.48,0.56-7.73-0.93l-0.92-0.57c0,0-5.66,1.44-7.26,2.19
					c-0.49,0.23-3.19,1.14-7.46,10.7c-1.82,4.09-1.28,8.25,2.07,11.19c0.19,2.59-1.48,8.42-1.48,8.42
					c-1.39,8.62-0.57,14.74-0.57,14.74s2.02,5.3,17.86,5.24c12.27-0.04,18.44-5.99,18.44-5.99c-0.15-3.02-4.86-13.53-4.4-17.07
					C368.08,280.43,372.81,271.18,369.73,261.16z"/>
			</g>
			<path id="Arm_5_" class="st17" d="M342.9,258.36c3.23,2.62,3.48,6.23,2.97,11.1c-0.5,4.87-5.38,20.09-6.37,23.4
				c-1,3.31-2.43,4.47-4.96,7.14c-2.63,2.79-8.4,6.94-11.34,9.38c-1.36,1.13-2.57,2.31-3.86,3.54c-1.34,1.29-2.96,2.17-4.47,3.26
				c-0.69,0.5-1.61,0.78-2.46,0.85c-0.56,0.05-1.05-0.26-1.58-0.22c-0.55,0.04-0.96,0.46-1.58,0.36c-0.69-0.11-1.16-0.69-1.79-0.75
				c-0.66-0.06-1.34,0.05-2.01-0.1c-0.61-0.13-1.01-0.3-1.64-0.17c-0.52,0.11-1.31,0.61-1.8,0.18c-0.54-0.48-0.23-1.12,0.1-1.63
				c0.57-0.9,1.83-1.65,2.84-1.96c1.17-0.36,2.24-0.98,3.45-1.2c1.09-0.2,2.15-0.9,3.04-1.57c0.62-0.47,1.13-1.28,0.09-1.5
				c-1.22-0.25-2.83-0.08-3.79-1.07c-0.67-0.68-0.27-1.31,0.53-1.49c1.35-0.3,2.61-0.68,3.91-1.18c1.3-0.5,2.53-1.13,3.84-1.58
				c0.68-0.24,1.41-0.4,2.12-0.55c1.99-0.41,3.15-2.1,4.4-3.55c1.74-2.02,4.72-5.83,6.76-8.57c0,0,3.07-14.85,3.07-14.85
				C334.32,267.55,335.03,260.8,342.9,258.36z"/>
			<path class="st17" d="M345.88,269.47c-0.27,2.55-1.73,7.95-3.21,12.98c-0.1,0.35-0.21,0.69-0.31,1.03
				c-1.23,4.17-2.42,7.93-2.86,9.39c-0.9,3.01-2.17,4.24-4.28,6.44c-0.22,0.23-0.44,0.45-0.67,0.7c-2.63,2.79-8.41,6.94-11.34,9.39
				c-1.35,1.13-2.57,2.3-3.85,3.53c-1.34,1.29-2.97,2.18-4.47,3.27c-0.7,0.5-1.61,0.78-2.46,0.85c-0.56,0.05-1.05-0.26-1.58-0.22
				c-0.55,0.04-0.96,0.46-1.58,0.36c-0.69-0.11-1.16-0.69-1.79-0.75c-0.66-0.07-1.34,0.05-2.01-0.1c-0.61-0.14-1.01-0.3-1.65-0.17
				c-0.16,0.04-0.35,0.11-0.55,0.18c-0.08,0.03-0.17,0.06-0.25,0.08c-0.11,0.04-0.23,0.07-0.35,0.08c-0.24,0.03-0.46,0-0.64-0.16
				c-0.55-0.48-0.23-1.11,0.09-1.62c0.58-0.9,1.83-1.66,2.84-1.96c1.17-0.36,2.24-0.98,3.45-1.2c1.09-0.2,2.15-0.9,3.04-1.57
				c0.62-0.47,1.12-1.28,0.09-1.5c-1.22-0.25-2.83-0.08-3.79-1.06c-0.67-0.69-0.28-1.32,0.53-1.5c1.36-0.3,2.61-0.68,3.91-1.18
				c1.3-0.5,2.54-1.13,3.84-1.58c0.69-0.24,1.42-0.41,2.13-0.55c1.99-0.41,3.15-2.11,4.39-3.55c1.74-2.03,4.73-5.83,6.77-8.57
				l3.06-14.85c1.94-8.1,2.65-14.86,10.52-17.29c0.88,0.72,1.55,1.51,2.03,2.38C346.21,263.06,346.24,265.93,345.88,269.47z"/>
			<g id="Arm_00000002379734729996081470000011716046649006249627_">
				<path class="st18" d="M302.02,316.35c-0.47-0.35-0.34-1-0.08-1.44c0.75-1.45,2.38-2.07,3.82-2.56c0.95-0.38,1.94-0.81,2.96-0.95
					c0.98-0.26,1.88-0.82,2.73-1.4c-0.8,0.65-1.66,1.28-2.68,1.58c-1.74,0.48-4.22,1.3-5.7,2.28
					C302.41,314.39,301.26,315.5,302.02,316.35L302.02,316.35z"/>
			</g>
			<g id="Arm_00000039103157070664007230000005775641715177643452_">
				<path class="st18" d="M307.74,307.43c-1.25-1.42,1.16-1.61,2.06-1.91c2.37-0.6,4.47-1.92,6.82-2.58
					c1.17-0.34,2.42-0.48,3.36-1.26c1.64-1.29,3.38-3.88,4.73-5.51c0,0,4.5-5.74,4.5-5.74c1.02-5.01,2.59-12.78,3.78-17.87
					c1.27-6.04,3.21-12.41,9.9-14.2c-6.58,1.86-8.5,8.24-9.73,14.24c-1.19,5.16-2.63,12.72-3.77,17.97l-4.54,5.72
					c-1.38,1.64-3.1,4.19-4.79,5.51c-0.98,0.81-2.27,0.95-3.41,1.27c-2.33,0.65-4.47,1.93-6.85,2.5
					C308.91,305.87,306.53,306,307.74,307.43L307.74,307.43z"/>
			</g>
		</g>
		<path id="Shadow_00000140702720342999480300000007671815065175602825_" class="st11" d="M365.51,323.41
			c0.02,0.38,0.09,0.78,0.31,1.1c0.21-0.26,0.39-0.58,0.57-0.78c0.43-0.48,0.86-0.58,1.43-0.83c0.63-0.28,1.12-0.77,1.69-1.1
			c0.55-0.32,1.26-0.13,1.89-0.44c0.56-0.28,0.65-0.86,1.07-1.22c0.41-0.35,0.98-0.38,1.41-0.75c0.65-0.56,1.22-1.32,1.49-2.14
			c0.58-1.77,1.37-3.44,1.7-5.26c0.32-1.75,0.61-3.42,1.04-5.13c0.94-3.7,3.18-10.45,3.67-14.25c0.47-3.65,0.13-4.84-1.01-8.1
			c-1.14-3.26-5.3-19.03-7.75-23.27c-2.33-4.02-4.25-4.54-8.81-5.44c-0.08-0.02-0.17-0.05-0.28-0.07c-0.14-0.03-0.3-0.07-0.46-0.1
			c-0.12-0.03-0.24-0.05-0.36-0.08c-0.15-0.03-0.31-0.06-0.46-0.09c-0.09-0.02-0.18-0.03-0.27-0.05c-0.24-0.05-0.46-0.09-0.66-0.13
			c-0.2-0.03-0.37-0.06-0.5-0.09c-0.05-0.01-0.09-0.02-0.13-0.02c-0.13-0.03-0.21-0.04-0.21-0.04l-0.53-3.69
			c0.04-0.01,0.09-0.02,0.13-0.03c0.81-0.96,1.7-1.95,2.63-3.07c0.11,0.13,0.21,0.27,0.29,0.43c0.42,0.8,0.13,1.77,0.29,2.66
			c0.35,1.92,2.61,2.83,4.56,2.88c1.65,0.03,3.43-0.39,4.5-1.65c0.54-0.64,0.86-1.45,1.46-2.02c1.16-1.09,3.04-1.03,4.29-2.01
			c0.99-0.78,1.41-2.12,1.37-3.38c-0.04-1.26-0.48-2.47-0.96-3.64c-0.83-2.03-0.17-3.29,0.25-5.31c0.45-2.18-0.85-4.59-2.91-5.4
			c-1.42-0.56-3.14-0.46-4.28-1.48c-0.62-0.55-0.95-1.35-1.51-1.96c-1.6-1.75-4.35-1.9-6.65-1.26c-0.55-0.39-1.24-0.59-1.94-0.57
			c-3.12-2.42-7.19-2.99-10.68-2.72c-1.31,0.52-2.48,1.38-3.49,2.39c-3.14,3.11-5.04,7.68-4.18,12.02c0.16,0.81,0.41,1.59,0.54,2.4
			c0.33,2.07-0.13,4.18-0.12,6.28c0.01,2.09,0.67,4.42,2.49,5.45c1.38,0.77,3.07,0.62,4.64,0.82c2.58,0.33,2.28,1.92,2.38,4.11
			c0.02,0.33,0.03,0.67-0.08,0.97c-0.04,0.12-0.1,0.22-0.18,0.32c-0.67,0.83-2.57,1.16-3.41,1.44c-1.56,0.51-3.38,0.84-4.86,1.64
			c-0.71,0.38-1.34,0.87-1.82,1.55c-1.91,2.68-2.72,5.87-3.53,9.01c-0.75,2.9-1.54,5.8-2.37,8.68c-0.75,2.61-1.53,5.21-2.34,7.8
			c-0.73,2.33-1.5,4.67-2.82,6.71c-1.55,2.37-3.77,4.21-5.77,6.23c-4.53,4.58-8.32,10.44-14.38,12.64
			c-2.33,0.84-4.83,1.07-7.22,1.71c-0.83,0.22-1.77,0.66-2.01,1.43c0.12-0.01,0.24-0.04,0.35-0.08c0.09-0.02,0.17-0.05,0.25-0.08
			c0.2-0.07,0.39-0.14,0.55-0.18c0.64-0.13,1.04,0.03,1.65,0.17c0.67,0.15,1.35,0.03,2.01,0.1c0.63,0.06,1.1,0.64,1.79,0.75
			c0.62,0.1,1.03-0.32,1.58-0.36c0.53-0.04,1.02,0.27,1.58,0.22c0.85-0.07,1.76-0.35,2.46-0.85c1.5-1.09,3.13-1.98,4.47-3.27
			c1.28-1.23,2.5-2.4,3.85-3.53c2.93-2.45,8.71-6.6,11.34-9.39c0.23-0.25,0.45-0.47,0.67-0.7l0.01-0.01
			c2.1-2.19,3.37-3.42,4.27-6.43c0.44-1.46,1.63-5.22,2.86-9.39c0.14-0.47,0.25-0.83,0.31-1.03c0.51,0.46,0.63,1.28,0.68,2
			c0.37,4.86,1.53,9.78,2.32,14.62c0.56,3.45,1.13,6.9,1.39,10.38c0.2,2.52,0.23,5.04,0.27,7.56c0.08,6.01,0.16,12.01,0.24,18.01
			c0.02,1.02,0.03,2.04,0.05,3.06c0.04,3.11,0.18,5.39,0.58,8.47c0.33,2.47,0.86,4.92,1.61,7.3c0.18,0.58,0.37,1.16,0.58,1.74
			c2.07,5.75,5.32,10.96,8.45,16.18c3.26,5.46,5.89,11.37,8.49,17.19c0.47,1.05,0.94,2.11,1.12,3.24c0.32,1.94-0.21,3.91-0.36,5.87
			c-0.15,1.91,0.07,3.84,0.02,5.76c-0.06,1.91-0.43,3.91-1.6,5.43c-0.77,1.01-1.87,1.73-3.09,2.09c0.9,0.16,1.86,0.2,2.91,0.09
			c0.6-0.06,1.12-0.25,1.57-0.54c1.78-0.79,6.48-2.91,7.24-3.52c0.94-0.75,1.45-1.82,1.22-3.99c-0.24-2.18-0.01-3.6,1.19-6
			c0.76-1.52,1.36-2.72,1.46-3.51c0.25-0.85-0.63-1.73-0.97-1.9c-0.25-0.97-1.13-1.48-1.98-2.01c-1.2-0.75-2.66-1.53-3.28-2.44
			c-0.64-0.93-1.25-3.18-1.25-3.18c-0.1-0.22-0.3-0.41-0.57-0.57c-1.54-4.43-4.89-13.64-5.88-16.77c-1.86-5.93-2.69-8.07-5.9-11.37
			c0,0,1.77-17.28,2.8-29.85l1.24-2.17c0.13-0.23,0.26-0.45,0.4-0.67c1.38-2.27,3.02-4.37,4.84-6.3c0.18-0.19,0.36-0.41,0.54-0.62
			c-0.27,0.45-0.54,0.91-0.84,1.35C366.91,319.23,365.42,321.17,365.51,323.41z M371.63,302.79c0.07-0.07,0.12-0.11,0.12-0.11
			c-0.02-0.47-0.16-1.13-0.37-1.92c-0.23-0.85-0.55-1.86-0.9-2.95c-0.11-0.34-0.23-0.69-0.35-1.04c-0.41-1.22-0.85-2.52-1.25-3.78
			c-0.13-0.39-0.25-0.78-0.36-1.16c-0.14-0.42-0.26-0.84-0.37-1.24c-0.08-0.29-0.16-0.57-0.23-0.85c-0.02-0.09-0.05-0.19-0.07-0.28
			c-0.05-0.19-0.09-0.37-0.13-0.54c-0.08-0.33-0.15-0.64-0.2-0.94c-0.02-0.11-0.04-0.22-0.06-0.33c-0.01-0.08-0.03-0.15-0.03-0.23
			c-0.03-0.15-0.05-0.3-0.06-0.44c-0.01-0.1-0.02-0.2-0.03-0.3c-0.02-0.19-0.02-0.37-0.02-0.54c0-0.19,0.01-0.36,0.03-0.52
			c0.18-1.29,0.61-2.84,1.11-4.59c0.33-1.15,0.68-2.4,1.01-3.71c0.95,1.76,1.87,3.54,2.79,5.32c0.74,1.43,1.48,2.86,1.97,4.4
			c1.1,3.47,0.84,7.21,0.41,10.82c-0.49,4.12-1.31,8.21-2.72,12.08C372.3,307.47,372.05,304.9,371.63,302.79z"/>
	</g>
</g>
</svg>
