<svg width="242" height="50" viewBox="0 0 242 50" fill="none" xmlns="http://www.w3.org/2000/svg">
<g clip-path="url(#clip0_46_665)">
<mask id="mask0_46_665" style="mask-type:luminance" maskUnits="userSpaceOnUse" x="-37" y="-23" width="114" height="113">
<path d="M-36.0105 -22.0139H76.7507V89.6614H-36.0105V-22.0139Z" fill="white"/>
</mask>
<g mask="url(#mask0_46_665)">
<path d="M40.1922 21.3668L21.5561 32.0926C21.3913 32.1875 21.2898 32.3622 21.2898 32.5513L21.304 49.7076C21.304 49.9282 21.5458 50.066 21.7386 49.955L23.815 48.7599C24.0441 48.6279 24.1853 48.3851 24.1853 48.1224V35.2735C24.1853 34.9653 24.351 34.6803 24.6201 34.5255L37.3253 27.213C37.5624 27.0766 37.8594 27.2459 37.8594 27.5175V40.1609C37.8594 40.3818 38.1014 40.5196 38.294 40.4086L40.3699 39.2139C40.5995 39.0819 40.7404 38.8389 40.7404 38.5762V21.6793C40.7404 21.4006 40.4353 21.2268 40.1922 21.3668Z" fill="white"/>
</g>
<mask id="mask1_46_665" style="mask-type:luminance" maskUnits="userSpaceOnUse" x="-37" y="-23" width="114" height="113">
<path d="M-36.0105 -22.0139H76.7507V89.6614H-36.0105V-22.0139Z" fill="white"/>
</mask>
<g mask="url(#mask1_46_665)">
<path d="M35.7912 29.9674L33.5714 31.2449C33.4128 31.3363 33.3152 31.5042 33.3152 31.6858V38.7046C33.3152 38.8866 33.4133 39.0553 33.5727 39.1462L35.7919 40.4153C35.9847 40.5256 36.2258 40.3878 36.2258 40.1671V30.2151C36.2258 29.9942 35.9838 29.8564 35.7912 29.9674Z" fill="#800080"/>
</g>
<mask id="mask2_46_665" style="mask-type:luminance" maskUnits="userSpaceOnUse" x="-37" y="-23" width="114" height="113">
<path d="M-36.0105 -22.0139H76.7507V89.6614H-36.0105V-22.0139Z" fill="white"/>
</mask>
<g mask="url(#mask2_46_665)">
<path d="M19.3879 32.0945L0.614311 21.3598C0.371198 21.2209 0.0671945 21.3946 0.0671945 21.6729L-0.000237478 38.5716C-0.00136509 38.8359 0.140714 39.0807 0.3721 39.2129L2.47465 40.4152C2.66747 40.5257 2.90855 40.3877 2.90855 40.1673V27.4807C2.90855 27.2096 3.20489 27.0403 3.44191 27.1758L16.3233 34.5415C16.5935 34.6961 16.7601 34.9815 16.7601 35.2906V48.1197C16.7601 48.383 16.902 48.6264 17.1323 48.758L19.2364 49.9612C19.4292 50.0715 19.6703 49.9335 19.6701 49.7128L19.6558 32.5539C19.6558 32.3643 19.5537 32.1892 19.3879 32.0945Z" fill="white"/>
</g>
<mask id="mask3_46_665" style="mask-type:luminance" maskUnits="userSpaceOnUse" x="-37" y="-23" width="114" height="113">
<path d="M-36.0105 -22.0139H76.7507V89.6614H-36.0105V-22.0139Z" fill="white"/>
</mask>
<g mask="url(#mask3_46_665)">
<path d="M7.16574 31.1735L4.97614 29.9216C4.78332 29.811 4.54224 29.949 4.54224 30.1695V40.1609C4.54224 40.382 4.784 40.5198 4.97682 40.4088L7.16709 39.1482C7.32563 39.0568 7.42329 38.8889 7.42329 38.7071V31.6152C7.42329 31.433 7.32518 31.2646 7.16574 31.1735Z" fill="#800080"/>
</g>
<mask id="mask4_46_665" style="mask-type:luminance" maskUnits="userSpaceOnUse" x="-695" y="-23" width="1255" height="113">
<path d="M-694.131 -22.0139H559.933V89.6614H-694.131V-22.0139Z" fill="white"/>
</mask>
<g mask="url(#mask4_46_665)">
<path d="M238.674 46.9592H32.338C30.502 46.9592 29.0122 47.0921 29.0122 47.2556V48.088C29.0122 48.2517 30.502 48.3844 32.338 48.3844H238.674C240.51 48.3844 242 48.2517 242 48.088V47.2556C242 47.0921 240.51 46.9592 238.674 46.9592Z" fill="#F2A516"/>
</g>
<path d="M12.1486 13.1579C12.2554 13.1943 12.3627 13.2308 12.4849 13.2668C12.9829 13.4134 13.8456 13.5943 14.3118 13.6525C14.3974 13.6632 14.4724 13.6758 14.5625 13.6996C14.6076 13.7116 14.6529 13.7221 14.7399 13.7615C14.7834 13.7812 14.8368 13.8037 14.9322 13.8803C14.9799 13.9185 15.0409 13.9704 15.1083 14.0707C15.1419 14.1208 15.2044 14.2634 15.2044 14.2634L15.252 14.5405C15.252 14.5405 15.2448 14.6607 15.2381 14.6962C15.2314 14.7318 15.2241 14.7566 15.2183 14.7767C15.2065 14.8171 15.1981 14.8386 15.1908 14.8569C15.1762 14.8933 15.1672 14.9107 15.1595 14.9262C15.144 14.9574 15.1334 14.9769 15.1221 14.9969C15.0996 15.0369 15.0756 15.076 15.0471 15.1229C14.9902 15.2167 14.9172 15.3346 14.836 15.4605C14.4292 16.0916 14.0123 16.6516 13.0293 17.894C12.7303 18.272 12.3708 18.7418 12.0855 19.1294C11.5575 19.8469 11.1774 20.7111 11.1116 21.1239C11.1024 21.1815 11.0857 21.403 11.0852 21.5927C11.0851 21.7017 11.0865 21.7148 11.0918 21.7831C11.263 21.7863 11.5011 21.7882 11.7935 21.7904C12.3927 21.7948 13.2054 21.7969 14.0835 21.7954L17.0425 21.7904C17.0662 21.7796 17.0537 21.7999 17.1135 21.7161C17.1845 21.6165 17.3195 21.3845 17.5294 20.9855C18.3453 19.435 18.9074 18.4881 19.4808 17.8941L20.3189 17.0261L21.1577 17.8941C21.7631 18.5213 22.3913 19.5952 23.2181 21.1893C23.373 21.4879 23.4754 21.6577 23.5277 21.7272C23.5691 21.7824 23.5709 21.7774 23.5938 21.7894H26.5917C27.4803 21.7894 28.2988 21.7869 28.9003 21.7819C29.1696 21.7793 29.3764 21.7768 29.5435 21.7743C29.5451 21.749 29.5474 21.7348 29.5484 21.7076C29.5565 21.51 29.5456 21.2636 29.5296 21.155C29.4734 20.7746 29.2554 20.2128 28.8653 19.5957C28.6347 19.2309 28.2836 18.7483 27.743 18.0658C26.9794 17.1016 26.4175 16.3639 26.086 15.8823C25.9153 15.6342 25.768 15.4125 25.6592 15.2381C25.6047 15.1508 25.5609 15.0781 25.5204 15.0031C25.5002 14.9657 25.4823 14.9319 25.4543 14.8621C25.4404 14.8272 25.4208 14.7892 25.4018 14.6838C25.3923 14.6311 25.3778 14.5619 25.3942 14.4293C25.4024 14.363 25.4679 14.1757 25.4679 14.1757L25.719 13.8629C25.719 13.8629 25.8379 13.7854 25.8699 13.77C25.9019 13.7546 25.9219 13.7469 25.9386 13.7406C25.9723 13.7279 25.9903 13.7228 26.0047 13.7184C26.0335 13.7099 26.0471 13.7065 26.0599 13.7033C26.0855 13.6976 26.1029 13.6947 26.1223 13.6909C26.1612 13.6832 26.2051 13.6755 26.2571 13.6664C26.3612 13.6481 26.4957 13.6252 26.643 13.6019C27.3933 13.4832 28.0419 13.3183 28.5465 13.1406L27.7708 12.697L12.9646 12.6885L12.1486 13.1579Z" fill="white"/>
<path d="M30.3417 14.1667C30.0849 14.3325 29.7961 14.4669 29.4785 14.597C28.9667 14.8065 28.2816 14.9443 27.6093 15.0855C27.9064 15.5073 28.385 16.1446 29.0827 17.0256C29.6415 17.7312 30.0251 18.2511 30.309 18.7001C30.7864 19.4553 31.109 20.1897 31.2155 20.9111C31.2577 21.1973 31.2618 21.4919 31.2501 21.7755C31.2443 21.9173 31.2342 22.0531 31.2155 22.1848C31.1968 22.3165 31.2085 22.4095 31.0754 22.6608C30.8551 23.0769 30.7005 23.2672 30.159 23.4176C29.9191 23.4842 29.9853 23.4477 29.9568 23.4496C29.9283 23.4515 29.9037 23.4522 29.8742 23.4534C29.8153 23.456 29.7418 23.4579 29.6509 23.4598C29.4691 23.4636 29.2198 23.4661 28.9155 23.4686C28.307 23.4737 27.4844 23.4758 26.5918 23.4758H23.1208L22.7475 23.2583C22.545 23.1404 22.3238 22.9495 22.1617 22.7338C21.9997 22.5181 21.871 22.285 21.7022 21.9597C21.0792 20.7585 20.6662 20.1792 20.3177 19.6983C19.9923 20.1439 19.6438 20.6153 19.0392 21.7644C18.8204 22.1803 18.6735 22.4515 18.5047 22.6883C18.3359 22.9252 18.1 23.1369 17.8916 23.2583L17.5183 23.4758L14.0859 23.4824C13.2034 23.4836 12.3878 23.4817 11.781 23.4773C11.552 23.4754 11.3866 23.4735 11.224 23.471L11.1566 23.5773L10.56 23.435H10.5587C9.98425 23.2984 9.56735 22.8594 9.4375 22.3049C9.36852 22.0101 9.38201 21.8372 9.38265 21.5887C9.38329 21.3403 9.39198 21.098 9.42989 20.8604C9.57142 19.9718 10.0558 19.025 10.7097 18.1364C11.0091 17.7296 11.3748 17.2504 11.6885 16.8539C12.4339 15.9117 12.6904 15.5384 12.9984 15.093C12.647 15.0176 12.2978 14.9707 11.9997 14.883C11.3296 14.6857 10.7978 14.4746 10.3569 14.189L1.4984 19.2874C1.22303 19.446 1.22358 19.84 1.49967 19.9977L19.8542 30.4924C20.2362 30.7109 20.7071 30.7101 21.0884 30.4905L39.3095 20.0036C39.5848 19.8451 39.5843 19.451 39.3085 19.2933L30.3417 14.1667Z" fill="white"/>
<path d="M10.7575 22.6149C10.5189 22.5581 10.3251 22.36 10.2675 22.1139C10.2218 21.9189 10.2235 21.2876 10.2707 20.9924C10.3743 20.3417 10.807 19.4361 11.398 18.6331C11.6903 18.2359 12.0527 17.761 12.3591 17.3738C13.3376 16.1369 13.7303 15.6085 14.1185 15.0063C14.2738 14.7654 14.4009 14.556 14.4009 14.541C14.4009 14.526 14.3129 14.5028 14.2055 14.4894C13.6629 14.4216 12.8041 14.2403 12.242 14.0748C10.8659 13.6696 10.2319 13.2164 10.2319 12.6377C10.2319 11.9539 10.8464 11.2204 12.0559 10.4604C12.8046 9.98982 14.5063 9.11922 16.5671 8.15229C16.9689 7.96377 16.9399 8.008 16.9877 7.51138C17.0153 7.22474 17.1651 6.63509 17.2902 6.32055C17.6969 5.29778 18.407 4.59638 19.3515 4.2844C19.6915 4.17212 19.7289 4.1676 20.3193 4.1676C20.9097 4.1676 20.9471 4.1721 21.2871 4.2844C22.2317 4.59638 22.9417 5.29778 23.3485 6.32055C23.4735 6.63509 23.6233 7.22474 23.6509 7.51138C23.663 7.63696 23.6812 7.79337 23.6913 7.85895C23.7117 7.99057 23.5627 7.90834 25.1769 8.67917C27.9277 9.9928 29.0302 10.6392 29.7535 11.3626C30.3185 11.9277 30.5399 12.5497 30.3293 12.9804C30.0395 13.5734 28.6658 14.1358 26.7775 14.4346C26.4908 14.4799 26.2496 14.5222 26.2414 14.5286C26.2206 14.5446 26.4594 14.9274 26.7897 15.4075C27.0958 15.8523 27.6546 16.5885 28.4129 17.5458C28.9626 18.2399 29.3301 18.7414 29.5874 19.1482C30.0212 19.8344 30.2909 20.4822 30.3723 21.0331C30.4306 21.4279 30.4023 22.1165 30.3216 22.2691C30.2466 22.4106 30.0628 22.5681 29.9292 22.6052C29.8745 22.6204 28.3725 22.6329 26.5913 22.6329H23.353L23.1793 22.5318C22.9217 22.3818 22.7838 22.1982 22.4602 21.5743C21.6473 20.0072 20.9817 18.9323 20.5421 18.4768L20.3193 18.2461L20.0966 18.4768C19.6666 18.9223 19.0876 19.8481 18.2841 21.3753C17.8553 22.1902 17.7201 22.38 17.4601 22.5313L17.2857 22.6329L14.0845 22.6386C12.3239 22.6418 10.8266 22.6313 10.7575 22.6149Z" fill="#F2A516"/>
<path d="M46.3464 38.5915C46.0343 38.5915 45.8782 38.377 45.8782 37.9481V10.1774C45.8782 9.7828 45.9781 9.43963 46.1779 9.14794L49.3995 4.69537C49.6118 4.42084 49.8616 4.28357 50.1488 4.28357H54.4194C54.7066 4.28357 54.9563 4.42084 55.1686 4.69537L58.3154 9.04499H59.1957L62.3425 4.69537C62.5548 4.42084 62.8045 4.28357 63.0917 4.28357H67.3248C67.6245 4.28357 67.8743 4.42084 68.0741 4.69537L71.3145 9.14794C71.5268 9.43963 71.6329 9.7828 71.6329 10.1774V37.9481C71.6329 38.377 71.4768 38.5915 71.1646 38.5915H65.5829C65.2707 38.5915 65.1146 38.377 65.1146 37.9481V12.082H62.0053V37.9481C62.0053 38.377 61.8492 38.5915 61.5371 38.5915H55.974C55.6619 38.5915 55.5058 38.377 55.5058 37.9481V12.082H52.3777V37.9481C52.3777 38.377 52.2216 38.5915 51.9095 38.5915H46.3464Z" fill="white"/>
<path d="M75.188 38.5915C74.8959 38.5915 74.7498 38.4468 74.7498 38.1574V15.8818C74.7498 15.5924 74.8959 15.4478 75.188 15.4478H87.3896C87.6818 15.4478 87.8279 15.5924 87.8279 15.8818V20.0314C87.8279 20.3207 87.6818 20.4654 87.3896 20.4654H80.833V24.7886H86.8987C87.1909 24.7886 87.337 24.9333 87.337 25.2226V28.8166C87.337 29.106 87.1909 29.2507 86.8987 29.2507H80.833V33.5565H87.3896C87.6818 33.5565 87.8279 33.7011 87.8279 33.9905V38.1574C87.8279 38.4468 87.6818 38.5915 87.3896 38.5915H75.188Z" fill="white"/>
<path d="M91.5794 38.5915C91.2872 38.5915 91.1411 38.4468 91.1411 38.1574V34.6156C91.1411 34.4651 91.147 34.3436 91.1587 34.251C91.182 34.1584 91.2522 34.0831 91.369 34.0252L95.8044 31.9418V29.2333L91.4392 26.5942C91.2405 26.4785 91.1411 26.3049 91.1411 26.0734V19.4584C91.1411 19.2732 91.1528 19.1401 91.1762 19.0591C91.1996 18.9665 91.2872 18.8681 91.4391 18.7639L96.0498 15.6735C96.155 15.604 96.2602 15.5519 96.3654 15.5172C96.4705 15.4709 96.5991 15.4478 96.751 15.4478H101.73C102.022 15.4478 102.168 15.5924 102.168 15.8818V19.2153C102.168 19.47 102.08 19.6436 101.905 19.7362L97.312 21.6287V24.4413L101.905 27.0457C102.08 27.1267 102.168 27.3119 102.168 27.6012V35.1538C102.168 35.2464 102.151 35.3448 102.116 35.4489C102.092 35.5531 102.034 35.6284 101.94 35.6747L96.4355 38.3831C96.3653 38.4179 96.2777 38.4642 96.1725 38.522C96.079 38.5683 95.9855 38.5915 95.892 38.5915H91.5794Z" fill="white"/>
<path d="M105.814 38.5915C105.522 38.5915 105.376 38.4468 105.376 38.1574V22.0627C105.376 21.9007 105.435 21.7271 105.552 21.5419L109.706 15.7082C109.835 15.5346 110.022 15.4478 110.267 15.4478H116.14C116.397 15.4478 116.584 15.5346 116.701 15.7082L120.874 21.5419C120.99 21.7039 121.049 21.8775 121.049 22.0627V38.1574C121.049 38.4468 120.903 38.5915 120.611 38.5915H115.404C115.112 38.5915 114.966 38.4468 114.966 38.1574V30.9348H111.477V38.1574C111.477 38.4468 111.331 38.5915 111.039 38.5915H105.814ZM113.213 26.8026C114.194 26.8026 114.866 26.5827 115.229 26.1428C115.603 25.703 115.79 24.8928 115.79 23.7121C115.79 22.5315 115.603 21.7213 115.229 21.2814C114.866 20.8416 114.194 20.6217 113.213 20.6217C112.243 20.6217 111.57 20.8416 111.196 21.2814C110.834 21.7213 110.653 22.5315 110.653 23.7121C110.653 24.8928 110.834 25.703 111.196 26.1428C111.57 26.5827 112.243 26.8026 113.213 26.8026Z" fill="white"/>
<path d="M130.726 38.5915C130.434 38.5915 130.288 38.4468 130.288 38.1574V19.4237C130.288 19.1575 130.381 18.926 130.568 18.7292L133.584 15.7256C133.782 15.5404 134.016 15.4478 134.285 15.4478H138.282C138.551 15.4478 138.785 15.5404 138.983 15.7256L141.928 18.6597H142.752L145.698 15.7256C145.896 15.5404 146.13 15.4478 146.399 15.4478H150.361C150.641 15.4478 150.875 15.5404 151.062 15.7256L154.095 18.7292C154.294 18.926 154.393 19.1575 154.393 19.4237V38.1574C154.393 38.4468 154.247 38.5915 153.955 38.5915H148.73C148.438 38.5915 148.292 38.4468 148.292 38.1574V20.7085H145.382V38.1574C145.382 38.4468 145.236 38.5915 144.944 38.5915H139.737C139.445 38.5915 139.299 38.4468 139.299 38.1574V20.7085H136.371V38.1574C136.371 38.4468 136.225 38.5915 135.933 38.5915H130.726Z" fill="white"/>
<path d="M158.478 38.5915C158.185 38.5915 158.039 38.4468 158.039 38.1575V22.0627C158.039 21.9007 158.098 21.7271 158.215 21.5419L162.369 15.7082C162.498 15.5346 162.685 15.4478 162.93 15.4478H168.803C169.06 15.4478 169.247 15.5346 169.364 15.7082L173.537 21.5419C173.654 21.7039 173.712 21.8776 173.712 22.0627V38.1575C173.712 38.4468 173.566 38.5915 173.274 38.5915H168.067C167.775 38.5915 167.629 38.4468 167.629 38.1575V30.9348H164.14V38.1575C164.14 38.4468 163.994 38.5915 163.702 38.5915H158.478ZM165.876 26.8026C166.857 26.8026 167.529 26.5827 167.892 26.1429C168.266 25.703 168.453 24.8928 168.453 23.7122C168.453 22.5315 168.266 21.7213 167.892 21.2815C167.529 20.8416 166.857 20.6217 165.876 20.6217C164.906 20.6217 164.234 20.8416 163.86 21.2815C163.497 21.7213 163.316 22.5315 163.316 23.7122C163.316 24.8928 163.497 25.703 163.86 26.1429C164.234 26.5827 164.906 26.8026 165.876 26.8026ZM164.087 14.597C163.877 14.6896 163.725 14.6375 163.632 14.4408L163.018 13.156C162.936 12.9476 163.001 12.774 163.211 12.6351L167.296 10.0134C167.506 9.89768 167.664 9.97292 167.769 10.2391L168.751 12.2879C168.844 12.4731 168.78 12.6235 168.558 12.7393L164.087 14.597Z" fill="white"/>
<path d="M181.864 38.5915C181.595 38.5915 181.361 38.4931 181.163 38.2963L177.656 34.8239C177.469 34.6387 177.376 34.4072 177.376 34.1294V19.8925C177.376 19.6262 177.469 19.3947 177.656 19.198L181.163 15.7256C181.361 15.5404 181.595 15.4478 181.864 15.4478H192.277C192.569 15.4478 192.716 15.5924 192.716 15.8818V20.0314C192.716 20.3207 192.569 20.4654 192.277 20.4654H184.055C183.892 20.4654 183.751 20.5233 183.635 20.639C183.518 20.7548 183.459 20.8937 183.459 21.0557V32.9488C183.459 33.1108 183.518 33.2497 183.635 33.3655C183.751 33.4812 183.892 33.5391 184.055 33.5391H187.614V29.268L185.51 29.2506C185.218 29.2506 185.072 29.1059 185.072 28.8166V24.9795C185.072 24.6902 185.218 24.5455 185.51 24.5455H192.733C193.025 24.5455 193.171 24.6902 193.171 24.9795V34.1294C193.171 34.4072 193.072 34.6387 192.873 34.8239L189.367 38.2963C189.18 38.4931 188.946 38.5915 188.666 38.5915L181.864 38.5915Z" fill="white"/>
<path d="M196.906 38.5915C196.613 38.5915 196.467 38.4468 196.467 38.1574V15.8818C196.467 15.5924 196.613 15.4478 196.906 15.4478H202.112C202.404 15.4478 202.551 15.5924 202.551 15.8818V38.1574C202.551 38.4468 202.404 38.5915 202.112 38.5915H196.906Z" fill="white"/>
<path d="M212.841 38.5915C212.561 38.5915 212.327 38.5162 212.14 38.3658L209.44 35.883L206.477 32.2369C206.349 32.0865 206.267 31.9881 206.232 31.9418C206.197 31.8955 206.179 31.7855 206.179 31.6119V22.41C206.179 22.2363 206.197 22.1264 206.232 22.0801C206.267 22.0338 206.349 21.9354 206.477 21.7849L209.142 18.4861L212.14 15.6734C212.257 15.5693 212.356 15.5056 212.438 15.4825C212.52 15.4593 212.654 15.4478 212.841 15.4478H217.259C217.551 15.4478 217.697 15.5924 217.697 15.8818V19.007C217.697 19.0996 217.686 19.198 217.662 19.3021C217.651 19.3947 217.598 19.4758 217.504 19.5452L214.366 21.7849L212.263 24.3893V29.7021L214.437 32.3411L217.504 34.5287C217.598 34.5866 217.651 34.6561 217.662 34.7371C217.686 34.8181 217.697 34.9107 217.697 35.0149V38.1574C217.697 38.4468 217.551 38.5915 217.259 38.5915L212.841 38.5915Z" fill="white"/>
<path d="M221.098 38.5915C220.806 38.5915 220.66 38.4468 220.66 38.1574V22.0627C220.66 21.9007 220.718 21.7271 220.835 21.5419L224.99 15.7082C225.119 15.5346 225.306 15.4478 225.551 15.4478H231.424C231.681 15.4478 231.868 15.5346 231.985 15.7082L236.157 21.5419C236.274 21.7039 236.333 21.8775 236.333 22.0627V38.1574C236.333 38.4468 236.187 38.5915 235.894 38.5915H230.688C230.395 38.5915 230.249 38.4468 230.249 38.1574V30.9348H226.761V38.1574C226.761 38.4468 226.615 38.5915 226.322 38.5915H221.098ZM228.496 26.8026C229.478 26.8026 230.15 26.5827 230.512 26.1428C230.886 25.703 231.073 24.8928 231.073 23.7121C231.073 22.5315 230.886 21.7213 230.512 21.2814C230.15 20.8416 229.478 20.6217 228.496 20.6217C227.526 20.6217 226.854 20.8416 226.48 21.2814C226.118 21.7213 225.937 22.5315 225.937 23.7121C225.937 24.8928 226.118 25.703 226.48 26.1428C226.854 26.5827 227.526 26.8026 228.496 26.8026Z" fill="white"/>
<path d="M199.241 0L197.121 4.28523L192.354 4.98457L195.814 8.30557L195.013 13.0112L199.271 10.7788L203.542 12.9881L202.715 8.28679L206.156 4.94652L201.386 4.27349L199.241 0ZM199.256 5.47114L199.768 6.49078L200.907 6.65141L200.085 7.4489L200.283 8.57047L199.264 8.0435L198.248 8.5761L198.439 7.45313L197.613 6.66033L198.75 6.4936L199.256 5.47114Z" fill="#35CF43"/>
<path d="M29.5547 12.6052C29.5566 12.6273 29.5545 12.6305 29.5633 12.6127C29.5701 12.5988 29.5651 12.5991 29.5547 12.6052Z" fill="#350E43"/>
</g>
<defs>
<clipPath id="clip0_46_665">
<rect width="242" height="50" fill="white"/>
</clipPath>
</defs>
</svg>
